<svg height="56" viewBox="0 0 56 56" width="56" xmlns="http://www.w3.org/2000/svg"><g fill="none"><rect fill="none" height="56" rx="8" width="56"/><path d="m40.755 36.227h-36.227c-2.49755455-.0076865-4.52031347-2.0304454-4.528-4.528v-27.17c.00768653-2.49755455 2.03044545-4.52031347 4.528-4.528h36.227c2.4975546.00768653 4.5203135 2.03044545 4.528 4.528v27.17c-.0076865 2.4975546-2.0304454 4.5203135-4.528 4.528z" fill="#fff" transform="translate(5.358 14.415)"/><path d="m-.00010917 2.264c-.00583009.60225124.23079011 1.18156577.65666675 1.60744242.42587665.42587664 1.00519118.66249684 1.60744242.65655758h27.94c2.4975546-.00768653 4.5203135-2.03044545 4.528-4.528h-32.468c-.60225124-.00593926-1.18156577.23068094-1.60744242.65655758-.42587664.42587665-.66249684 1.00519118-.65666675 1.60744242z" fill="#7ca7ee" transform="translate(15.774 46.113)"/><g fill="#444b54"><path d="m43.113 19.9250167h-36.226c-1.56265275.0037103-3.06240588-.6152643-4.16755902-1.7200422-1.10515315-1.1047778-1.72463723-2.6043206-1.72145329-4.1669745v-12.679c0-.48534531.25894093-.93382288.6792623-1.17649554.42032137-.24267267.93817865-.24267267 1.35850002 0 .42032137.24267266.67925.69115023.67924999 1.17649554v12.679c-.00536558.8423697.32689233 1.6517929.92254974 2.2474503s1.40508057.9279153 2.24745026.9225497h36.228c.8423697.0053656 1.6517929-.3268923 2.2474503-.9225497s.9279153-1.4050806.9225497-2.2474503v-12.679c0-.75027883.6082212-1.35850004 1.3585-1.35850004s1.3585123.60822121 1.3585123 1.35850004v12.679c.0031821 1.5623066-.6160278 3.0615447-1.7207477 4.1662646s-2.603958 1.7239298-4.1662646 1.7207521z" transform="translate(3 32.075)"/><path d="m24.9979969 21.238c-8.2154667-.0111974-16.27424848-2.2492295-23.3189969-6.476-.41382515-.2495861-.67086695-.6938419-.68100308-1.177v-7.7c-.0015962-1.561615.61859282-3.05961335 1.72357224-4.16309169s2.60381946-1.72163043 4.16543084-1.71792502h36.226c1.561266-.00264222 3.0593807.61625417 4.1635517 1.72004989 1.104171 1.10379571 1.7235765 2.60170003 1.7214452 4.16296682v7.7c-.0097021.4827609-.2659387.9269296-.6789969 1.177-7.0455316 4.2264179-15.1050387 6.4637683-23.3210031 6.474zm-21.28106089-8.423c13.16897929 7.6076048 29.39714869 7.6076048 42.56612799 0v-6.928c.0053016-.84236969-.3269563-1.65179285-.9226137-2.24745026s-1.4050806-.92791532-2.2474503-.92261373h-36.226c-.84236969-.00530159-1.65179285.32695632-2.24745026.92261373s-.92791532 1.40508057-.92261373 2.24745026z" transform="translate(3 13.057)"/><path d="m17.66 8.245c-.3621399.00657604-.7113865-.13438586-.9675003-.39049967s-.3970757-.60536041-.3904997-.96750033c.0053656-.84236969-.3268923-1.65179285-.9225497-2.24745026s-1.4050806-.92791532-2.2474503-.92254974h-7.245c-.84236969-.00536558-1.65179285.32689233-2.24745026.92254974s-.92791532 1.40508057-.92254974 2.24745026c0 .75027883-.60822117 1.3585-1.3585 1.3585s-1.35851673-.60822117-1.35851673-1.3585c-.00371032-1.56265275.61526438-3.06240588 1.72004219-4.16755902 1.10477782-1.10515315 2.60432062-1.72463723 4.16697454-1.72145329h7.245c1.5623066-.00318206 3.0615447.61602782 4.1662646 1.72074769s1.7239298 2.60395806 1.7207354 4.16626462c.0071347.36266028-.1337198.71258912-.3901146.9691726s-.60622.39769537-.9688854.3908274z" transform="translate(18.491 3)"/></g></g></svg>