<svg xmlns="http://www.w3.org/2000/svg" viewBox="0 0 3000 3000"><g data-name="Layer 2"><g data-name="Layer 1"><rect width="3000" height="3000" fill="none"/><path fill="#fff" stroke="#1a1a1a" stroke-linecap="round" stroke-linejoin="round" stroke-width="3.511" d="M193.40993,2407.46508H2067.957s-114.13963,165.469-487.35808,107.28025-311.16345-93.85285-517.92975-28.15586-444.10424,137.02516-650.64261,105.11519S193.40993,2407.46508,193.40993,2407.46508Z"/><path fill="none" stroke="#1a1a1a" stroke-linecap="round" stroke-linejoin="round" stroke-width="5.266" d="M1085.96407,2337.38841c-49.09134-105.65046,45.25046-304.20226,166.11116-387.759,149.37287-103.26836,417.71894-19.7882,440.34956-6.79776,8.55706-18.26235,144.33226-294.6393,420.77017-304.94659,213.90224-7.97559,312.66343,61.46906,395.96015,321.95473,7.07492-2.88342,113.25919,3.43443,181.60379,69.65855,81.97072,79.42747,74.27238,261.61376-.31,377.9667H1172.67757C1118.72438,2390.10057,1096.29718,2359.62616,1085.96407,2337.38841Z"/><path fill="#1c0311" stroke="#1a1a1a" stroke-linecap="round" stroke-linejoin="round" stroke-width="1.755" d="M2399.12057,503.368a102.93076,102.93076,0,0,0-102.93071-102.9309H851.72418A102.93075,102.93075,0,0,0,748.79347,503.368v1.14371h1650.3271Z"/><rect width="285.919" height="85.683" x="2113.195" y="602.868" fill="#1c0311" stroke="#1a1a1a" stroke-linecap="round" stroke-linejoin="round" stroke-width="1.755"/><rect width="285.919" height="495.543" x="2113.195" y="688.551" fill="#fff" stroke="#1a1a1a" stroke-linecap="round" stroke-linejoin="round" stroke-width="3.511"/><path fill="#1c0311" stroke="#1a1a1a" stroke-linecap="round" stroke-linejoin="round" stroke-width="1.755" d="M2113.195,1184.09408v327.99857h183a102.92368,102.92368,0,0,0,102.91908-102.93644V1184.09408Z"/><path fill="#fff" stroke="#1a1a1a" stroke-linecap="round" stroke-linejoin="round" stroke-width="3.511" d="M2399.11406,504.51289v98.35488H2113.195v909.22488H851.73261A102.92743,102.92743,0,0,1,748.796,1409.15621V504.51289Z"/><line x1="2113.195" x2="748.796" y1="602.868" y2="602.868" fill="none" stroke="#1a1a1a" stroke-linecap="round" stroke-linejoin="round" stroke-width="3.511"/><line x1="1025.373" x2="1025.373" y1="602.868" y2="1512.092" fill="#fff" stroke="#1a1a1a" stroke-linecap="round" stroke-linejoin="round" stroke-width="3.511"/><rect width="856.996" height="355.303" x="1117.439" y="669.201" fill="none" stroke="#1a1a1a" stroke-dasharray="21.065" stroke-linecap="round" stroke-linejoin="round" stroke-width="3.511"/><rect width="306.152" height="807.845" x="1392.861" y="442.931" fill="#fff" stroke="#1a1a1a" stroke-linecap="round" stroke-linejoin="round" stroke-width="3.511" transform="rotate(90 1545.937 846.853)"/><rect width="856.996" height="355.303" x="1117.439" y="1080.321" fill="none" stroke="#1a1a1a" stroke-dasharray="21.065" stroke-linecap="round" stroke-linejoin="round" stroke-width="3.511"/><rect width="306.153" height="807.845" x="1392.86" y="854.05" fill="#fff" stroke="#1a1a1a" stroke-linecap="round" stroke-linejoin="round" stroke-width="3.511" transform="rotate(90 1545.937 1257.973)"/><path fill="#fff" stroke="#1a1a1a" stroke-linecap="round" stroke-linejoin="round" stroke-width="3.511" d="M1491.04412,1512.091v895.49767h352.25515V1512.091Zm176.119,359.68055a86.34793,86.34793,0,1,1,86.34782-86.34792A86.35185,86.35185,0,0,1,1667.16312,1871.77154Z"/><path fill="#1c0311" stroke="#1a1a1a" stroke-linecap="round" stroke-linejoin="round" stroke-width="1.755" d="M2272.42466,2406.00255c40.30554,1.67461,82.09181,3.10366,119.39028-12.264s68.845-52.55821,64.13295-92.62239c-2.50595-21.307-14.50469-40.09388-23.029-59.78156s-13.34-43.57544-2.01233-61.795c15.48816-24.91126,53.25043-27.37642,70.0321-51.4353,15.10589-21.65641,7.08639-51.72849-5.61695-74.87613-7.15964-13.04607-16.12271-25.82681-29.16979-32.98459s-31.01155-7.11739-41.40324,3.535c-10.688,10.95614-10.28471,28.70075-18.46984,41.63423-7.95382,12.568-23.14094,18.93447-37.93556,20.463s-29.66026-1.01139-44.474-2.34255c-74.87234-6.72806-156.40353,22.52152-195.87172,86.50117-16.806,27.24332-25.16,58.7649-38.86073,87.69469s-35.17048,56.97384-65.98146,65.65285c-11.88771,3.3486-24.4246,3.58332-36.52108,6.07445s-24.48339,7.886-30.95021,18.40789c-11.2511,18.30621,1.51409,43.70234,20.60377,53.56586s42.23517,2.392,63.214,7.039C2044.43185,2409.56119,2272.42466,2406.00255,2272.42466,2406.00255Z"/><path fill="none" stroke="#fff" stroke-linecap="round" stroke-linejoin="round" stroke-width="5.266" d="M2113.264 2408.6774c34.8-16.72182 78.7461-56.65817 102.93534-86.75038 23.28141-28.96306 40.091-62.57432 62.08691-92.52531s51.17595-57.21457 87.51869-64.96617M2278.4013 2180.173s-9.39262 15.34107-.11509 49.22875M2298.0351 2275.72412s-10.36658 13.81127-58.849 13.77747M2375.7455 2193.26216s-28.71583 12.58695-58.44879-5.15958"/><path fill="#fff" stroke="#1a1a1a" stroke-linecap="round" stroke-linejoin="round" stroke-width="3.511" d="M1874.0271,2141.09363c2.0135-22.407,5.9478-45.41189,18.1976-64.28175s34.63074-32.68445,56.802-28.868c24.627,4.23914,46.5033,28.63762,70.24774,20.849,14.96049-4.90731,23.283-21.61848,23.97419-37.34808s-4.505-31.02565-8.41127-46.27815c-5.201-20.30789-8.18023-41.66974-4.04887-62.22194s16.27776-40.275,35.06926-49.567c28.72431-14.20354,64.745-.2838,86.64438,23.10939,7.90739,8.44675,14.6151,18.06748,23.421,25.57287s20.53494,12.80828,31.84444,10.365c11.82677-2.55508,20.64207-13.23639,24.03016-24.852s2.21353-24.05664.11125-35.97223c-2.82088-15.98847-6.027-35.59464,6.66191-45.72279,8.48925-6.776,20.60451-5.9134,31.32429-4.16191,24.88508,4.06594,49.84392,11.35622,70.1963,26.24176s35.55688,38.37858,35.65365,63.59345-17.65112,50.774-42.48886,55.11976c-16.40694,2.87067-34.69074-2.9355-49.15264,5.3278-15.23352,8.70418-18.98571,29.91286-13.85094,46.68954s16.883,30.54531,26.95153,44.9136,18.97858,31.11279,17.06923,48.55347c-2.53166,23.12505-24.44226,40.69438-47.41339,44.36926s-46.34276-3.91561-67.09372-14.43107c-11.78105-5.97-24.38266-13.14554-37.349-10.63388-19.11561,3.70281-28.19485,26.75159-26.61842,46.15861s10.1789,37.71781,11.79436,57.12161c3.74539,44.987-31.89574,85.73665-73.66055,102.8702s-88.45835,15.94723-133.57757,14.4931c-20.24173-25.63944-55.1307-55.82016-61.8344-88.73064C1870.52087,2224.09877,1870.4563,2180.83076,1874.0271,2141.09363Z"/><path fill="#fff" stroke="#1a1a1a" stroke-linecap="round" stroke-linejoin="round" stroke-width="3.511" d="M1906.47969 2258.97764a348.66255 348.66255 0 00137.745-122.74479c21.33008-33.02017 36.92815-69.48127 58.38008-102.42241s50.43561-63.24317 87.96657-74.93638M2101.86072 1970.74576s-7.85352 43.30746-4.41761 71.22907M2219.17267 2015.26453c-1.96338-1.32441-75.49812 20.17938-112.60292 12.618M2101.86072 2143.5232s-40.57654 36.42538-77.96256 20.91234M1965.89665 2136.16052c0 1.96338-21.15744 53.473 5.37374 81.22029"/><path fill="#fff" stroke="#1a1a1a" stroke-linecap="round" stroke-linejoin="round" stroke-width="3.511" d="M284.402,2407.72574H2069.65583c-37.19247-190.39662-195.63651-332.66788-383.16046-347.83247-170.65251-13.80027-335.82491,80.05418-415.003,236.822-16.37926-24.1293-72.38021-140.78544-334.04465-140.81285-251.026-.02629-329.92687,43.96307-375.07415,73.49929-54.77189-117.77005-226.26178-156.40372-292.1234-76.4712C211.67529,2224.02,215.24994,2334.97976,284.402,2407.72574Z"/><path fill="none" stroke="#1a1a1a" stroke-linecap="round" stroke-linejoin="round" stroke-width="5.266" d="M42,2407.59246H2690.7589"/><line x1="1872.011" x2="619.925" y1="400.437" y2="2407.592" fill="none" stroke="#1a1a1a" stroke-linecap="round" stroke-linejoin="round" stroke-width="5.266"/><line x1="2171.98" x2="919.894" y1="400.437" y2="2407.592" fill="none" stroke="#1a1a1a" stroke-linecap="round" stroke-linejoin="round" stroke-width="5.266"/><line x1="847.685" x2="1099.316" y1="2042.482" y2="2111.632" fill="none" stroke="#1a1a1a" stroke-linecap="round" stroke-linejoin="round" stroke-width="5.266"/><line x1="1058.814" x2="1310.445" y1="1703.396" y2="1772.546" fill="none" stroke="#1a1a1a" stroke-linecap="round" stroke-linejoin="round" stroke-width="5.266"/><line x1="1270.304" x2="1521.934" y1="1363.939" y2="1433.09" fill="none" stroke="#1a1a1a" stroke-linecap="round" stroke-linejoin="round" stroke-width="5.266"/><line x1="1481.658" x2="1733.288" y1="1026.852" y2="1096.002" fill="none" stroke="#1a1a1a" stroke-linecap="round" stroke-linejoin="round" stroke-width="5.266"/><line x1="1692.425" x2="1944.055" y1="688.285" y2="757.435" fill="none" stroke="#1a1a1a" stroke-linecap="round" stroke-linejoin="round" stroke-width="5.266"/><path fill="#fff" stroke="#1a1a1a" stroke-linecap="round" stroke-linejoin="round" stroke-width="3.511" d="M1168.52311,984.85668s49.75,17.15517,104.07472,83.48851,150.3937,31.45116,182.41669-23.4454,84.06035-160.6868,134.3822-142.38795c26.3046,11.818,44.98467,41.17242,27.06705,46.89081s-38.12261-13.72414-43.45978-5.71839,25.16093,14.48659,19.82376,23.25479-26.3046-9.14942-34.69157,15.63027-56.42147,196.71267-167.73949,227.21075-171.55174-51.84674-173.83909-57.18391S1158.61123,990.684,1158.61123,990.684Z"/><path fill="#1c0311" stroke="#1a1a1a" stroke-linecap="round" stroke-linejoin="round" stroke-width="1.755" d="M359.59693,2358.23567c-2.50924-4.03193-3.14052-8.21685-1.37012-12.402,6.29045-14.86772-88.06293-41.74422-88.06293-41.74422s-7.01344,9.30133-15.21829,22.87265C278.00745,2358.0141,318.99954,2363.46821,359.59693,2358.23567Z"/><path fill="#fff" stroke="#1a1a1a" stroke-linecap="round" stroke-linejoin="round" stroke-width="3.511" d="M406.83362 2383.57512c-22.18759-5.75218-40.83181-15.04729-47.23669-25.33945-40.59739 5.23254-81.58948-.22157-104.65134-31.27356-13.52461 22.36972-30.28915 56.35223-24.23869 79.48673 9.72153 37.16931 204.71833 41.1723 224.161 30.30736S437.71247 2391.5809 406.83362 2383.57512zM741.35927 1533.82225s-110.365 288.20693-172.886 386.56326S258.1552 2277.21314 261.205 2299.32425s37.36016 36.59771 72.433 46.50958 48.79694 18.29886 134.954-67.85824S885.65335 1933.3472 978.67251 1689.3625C966.47328 1553.646 741.35927 1533.82225 741.35927 1533.82225z"/><path fill="#1c0311" stroke="#1a1a1a" stroke-linecap="round" stroke-linejoin="round" stroke-width="1.755" d="M985.45855,1982.52117c8.75512,1.545,17.50982,2.93437,26.17665,3.77821a70.85547,70.85547,0,0,1,8.20956-11.01729l-35.95047-52.87894s-14.4143,12.13863-29.79673,28.07562C958.66605,1966.42218,970.22312,1979.98193,985.45855,1982.52117Z"/><path fill="#fff" stroke="#1a1a1a" stroke-linecap="round" stroke-linejoin="round" stroke-width="3.511" d="M1098.75872,2082.78787c-5.14662-19.44264-26.14794-58.89962-90.27217-74.339-4.21492-6.55917-.945-15.29007,3.14865-22.14945-8.66683-.84384-17.42153-2.23324-26.17665-3.77821-15.23543-2.53924-26.7925-16.099-31.361-32.0424-16.0347,16.61326-33.12152,37.35487-36.04,52.82344-5.71832,30.30758,50.89362,76.62629,102.93108,87.49123S1103.90534,2102.23029,1098.75872,2082.78787Z"/><path fill="#fff" stroke="#1a1a1a" stroke-linecap="round" stroke-linejoin="round" stroke-width="3.511" d="M1085.0695,1705.7719c-67.44212,77.40558-115.54641,220.71323-114.784,223.00059,0,0,27.067,64.046,53.75288,53.75288S1142.981,1899.7993,1142.981,1899.7993s223.01726-177.65136,250.46554-295.83145S1369.048,1395.056,1153.27406,1429.3663c-66.33334-3.0498-224.16094-51.08429-224.16094-51.08429l-134.954-86.1571s-61.55649,105.484-65.57088,146.55959c0,0-44.98468,269.7393,143.341,285.7508s278.295-47.272,278.295-47.272"/><path fill="#1c0311" stroke="#1a1a1a" stroke-linecap="round" stroke-linejoin="round" stroke-width="1.755" d="M728.5882,1438.6845s308.55429,20.50276,377.732,8.61473c52.29107-8.61168,38.37539-17.93632,38.37539-17.93632l-382.29394-28.15585Z"/><path fill="#fff" stroke="#1a1a1a" stroke-linecap="round" stroke-linejoin="round" stroke-width="3.511" d="M1171.63236,911.07855c-16.34284-9.18079-22.6273-17.79974-23.08329-18.44923Z"/><path fill="#fff" stroke="#1a1a1a" stroke-linecap="round" stroke-linejoin="round" stroke-width="3.511" d="M1295.47562,810.44168l-16.27255,49.16865s-51.20519,80.64289-94.66838,57.77a134.762,134.762,0,0,1-12.90233-6.30181l1.45711,1.15852L1151.375,950.53982c6.96887,12.34048,31.52684,39.18044,34.56364,42.49817a1.62,1.62,0,0,0,.246.24567.63391.63391,0,0,0,.07028.08786s-61.19329,21.78441-97.21405,9.77757-55.47025-48.02772-55.47025-48.02772L1123.3414,853.9053l33.17724-75.482s90.34974,2.282,103.49807,8.0046C1273.16461,792.15048,1295.47562,810.44168,1295.47562,810.44168Z"/><path fill="#1c0311" stroke="#1a1a1a" stroke-linecap="round" stroke-linejoin="round" stroke-width="1.755" d="M1153.29872,896.90442s13.07412,27.18031,13.35153,26.691,4.98211-9.95388,4.98211-9.95388Z"/><path fill="#1c0311" stroke="#1a1a1a" stroke-linecap="round" stroke-linejoin="round" stroke-width="1.755" d="M757.11277,1212.081c-13.353-9.34857-18.885-26.40031-21.10842-42.5482s-2.06418-32.86948-7.749-48.1463c-9.82015-26.38994-34.98038-43.556-51.30939-66.49564-32.06642-45.0482-23.57208-114.05453,18.462-149.98133,34.42944-29.4271,83.36173-35.29693,128.49126-31.46726s89.39936,15.98313,134.66761,17.44146,94.18056-9.9305,123.57312-44.38944c16.76087-19.64992,25.63089-44.94182,41.66-65.19309,23.96247-30.27433,64.06813-46.94284,102.42991-42.57139s73.689,29.6358,90.22589,64.52517c4.90574,10.35008,8.27775,21.84983,6.7511,33.20147s-8.80721,22.42344-19.7142,25.92029c-14.14882,4.53619-28.79176-4.24166-41.06153-12.62132l-53.74462-36.705c-10.06795-6.87593-21.22522-14.0568-33.372-13.00938-11.80126,1.01763-22.274,10.808-24.08329,22.514s5.219,24.20135,16.16239,28.73436c0,0-84.64636,76.38328-106.37625,88.96375S789.9656,1243.328,789.9656,1243.328Z"/><path fill="#54cafa" stroke="#1a1a1a" stroke-linecap="round" stroke-linejoin="round" stroke-width="3.511" d="M1238.28469,1127.81723c0,161.25064-76.62286,306.50964-76.62286,306.50964s-141.8185,14.86826-172.69607-10.30416c-30.87714-25.15475-94.15925-19.81838-121.61345-41.16395-27.45463-21.34567-54.89126-86.92724-54.89126-86.92724s84.62756-312.60092,221.10959-340.81015c0,0,19.4495,36.02076,55.47025,48.02772s97.21405-9.77757,97.21405-9.77757a.63391.63391,0,0,1-.07028-.08786C1214.3237,1019.45667,1238.28469,1061.27022,1238.28469,1127.81723Z"/><polygon fill="#fff" stroke="#1a1a1a" stroke-linecap="round" stroke-linejoin="round" stroke-width="3.511" points="550.62 1453.521 588.721 1154.861 1081.365 1220.625 1026.093 1524.005 550.62 1453.521"/><polygon fill="#fff" stroke="#1a1a1a" stroke-linecap="round" stroke-linejoin="round" stroke-width="3.511" points="597.828 1166.702 562.374 1444.615 1017.558 1512.092 1069.023 1229.604 597.828 1166.702"/><path fill="#54cafa" stroke="#1a1a1a" stroke-linecap="round" stroke-linejoin="round" stroke-width="3.511" d="M999.124,968.60912s-96.84762,31.8878-181.24548,162.42555c16.91668,31.72205,48.67709,56.26641,83.59987,65.40274a396.37855,396.37855,0,0,1,60.42016-49.1784"/><path fill="#fff" stroke="#1a1a1a" stroke-linecap="round" stroke-linejoin="round" stroke-width="3.511" d="M901.47839,1196.43741c-34.92278-9.13633-66.68319-33.68069-83.59987-65.40274q-9.509,14.70733-18.76337,31.09217c-88.06335,156.68386-107.506,259.615,68.62073,379.12929,40.02868,20.58626,98.92915-15.87485,86.6341-38.53075-23.439-3.47468-53.48344,2.185-49.75836-7.37632,3.72464-9.56136,39.17884-11.56275,24.597-28.432-13.43847-12.29463-36.59761,5.14651-58.04206,2.5732-21.4436-2.5732-65.76135-54.03874-55.46811-119.8003C823.28056,1301.24978,852.29773,1245.37218,901.47839,1196.43741Z"/><path fill="#54cafa" stroke="#1a1a1a" stroke-linecap="round" stroke-linejoin="round" stroke-width="3.511" d="M1155.18638,895.76663s12.25526,13.07641,16.446,15.31192"/><circle cx="2624.442" cy="1458.58" r="60.066" fill="#fff" stroke="#1a1a1a" stroke-linecap="round" stroke-linejoin="round" stroke-width="3.511"/><circle cx="193.41" cy="2022.352" r="42.473" fill="#fff" stroke="#1a1a1a" stroke-linecap="round" stroke-linejoin="round" stroke-width="3.511"/><path fill="#fff" stroke="#1a1a1a" stroke-linecap="round" stroke-linejoin="round" stroke-width="3.511" d="M518.94644,833.46347V793.52635h-41.202a73.58155,73.58155,0,0,0-6.92112-16.71569l29.13047-29.13025-28.245-28.24523L442.5783,748.56587a73.571,73.571,0,0,0-16.71569-6.92134V700.46061H385.94368v41.18392a73.57115,73.57115,0,0,0-16.71569,6.92134l-29.13047-29.13069-28.245,28.24523L340.983,776.81066a73.58245,73.58245,0,0,0-6.92112,16.71569h-41.202v39.93712h41.202a73.57418,73.57418,0,0,0,6.92112,16.71569l-29.13047,29.13048,28.245,28.245L369.228,878.42417a73.57055,73.57055,0,0,0,16.71569,6.92112v41.18392h39.91893V885.34529a73.57036,73.57036,0,0,0,16.71569-6.92112l29.13047,29.13048,28.245-28.245-29.13047-29.13048a73.57327,73.57327,0,0,0,6.92112-16.71569Zm-78.46444,0a39.94443,39.94443,0,0,1-14.61939,14.61939,38.97074,38.97074,0,0,1-9.63188,3.99385,40.09457,40.09457,0,0,1-20.67325,0,38.8445,38.8445,0,0,1-9.6138-3.99385,40.14706,40.14706,0,0,1-18.63121-24.25138,40.51706,40.51706,0,0,1-1.33724-10.33657,39.736,39.736,0,0,1,1.35533-10.33657,38.97889,38.97889,0,0,1,3.99373-9.632,40.0804,40.0804,0,0,1,14.61939-14.61917,38.8445,38.8445,0,0,1,9.6138-3.99385,40.09485,40.09485,0,0,1,20.67325,0,38.97074,38.97074,0,0,1,9.63188,3.99385A40.08033,40.08033,0,0,1,440.482,793.52635a38.97892,38.97892,0,0,1,3.99374,9.632,39.736,39.736,0,0,1,1.35532,10.33657,40.51662,40.51662,0,0,1-1.33724,10.33657A39.7214,39.7214,0,0,1,440.482,833.46347Z"/><rect width="152.075" height="152.075" x="2576.56" y="824.374" fill="#fff" stroke="#1a1a1a" stroke-linecap="round" stroke-linejoin="round" stroke-width="3.511"/><line x1="2652.598" x2="2652.598" y1="850.357" y2="950.467" fill="#fff" stroke="#1a1a1a" stroke-linecap="round" stroke-linejoin="round" stroke-width="3.511"/><line x1="2602.723" x2="2701.222" y1="900.412" y2="900.412" fill="#fff" stroke="#1a1a1a" stroke-linecap="round" stroke-linejoin="round" stroke-width="3.511"/><circle cx="896.924" cy="552.706" r="27.53" fill="#fff" stroke="#1a1a1a" stroke-linecap="round" stroke-linejoin="round" stroke-width="3.511"/><rect width="494.709" height="40.044" x="1025.373" y="532.13" fill="#fff" stroke="#1a1a1a" stroke-linecap="round" stroke-linejoin="round" stroke-width="3.511" rx="11.406"/><rect width="229.364" height="148.739" x="2728.636" y="1142.166" fill="#fff" stroke="#1a1a1a" stroke-linecap="round" stroke-linejoin="round" stroke-width="3.511"/><polygon fill="#fff" stroke="#1a1a1a" stroke-linecap="round" stroke-linejoin="round" stroke-width="3.511" points="2843.318 1214.45 2728.636 1142.166 2958 1142.166 2843.318 1214.45"/><line x1="2728.636" x2="2814.072" y1="1290.905" y2="1196.017" fill="#fff" stroke="#1a1a1a" stroke-linecap="round" stroke-linejoin="round" stroke-width="3.511"/><line x1="2875.778" x2="2958" y1="1196.017" y2="1290.905" fill="#fff" stroke="#1a1a1a" stroke-linecap="round" stroke-linejoin="round" stroke-width="3.511"/></g></g></svg>