<svg height="56" viewBox="0 0 56 56" width="56" xmlns="http://www.w3.org/2000/svg"><g fill="none"><rect fill="none" height="56" rx="8" width="56"/><path d="m10.34 0 1.765 6.855h-12.105l1.765-6.851" fill="#fff" transform="translate(21.947 41.745)"/><path d="m21.773 9.368h-20.512c-.69643107 0-1.261-.56456893-1.261-1.261s.56456893-1.261 1.261-1.261c1.38464155-.00612826 2.67602751-.69883863 3.447-1.849.38904272-.5767511 1.1681688-.73596711 1.75229285-.35808462.58412405.37788248.75828972 1.15380355.39170715 1.74508462-.10187412.16111569-.21411061.31544087-.336.462h9.793c-.3888913-.56094428-.6737565-1.18724133-.841-1.849l-.883-3.449c-.155553-.67050143.2584236-1.34106156.9275465-1.50244148.6691229-.16137993 1.3432589.24674778 1.5104535.91444148l.883 3.447c.3684882 1.4622765 1.6860185 2.48528062 3.194 2.48h.673c.6848331 0 1.24.55516691 1.24 1.24s-.5551669 1.24-1.24 1.24z" fill="#444b54" transform="translate(16.483 40.489)"/><path d="m21.773 2.522h-20.512c-.69643107 0-1.261-.56456893-1.261-1.261s.56456893-1.261 1.261-1.261h20.47c.4505119-.00750258.8708047.22591 1.102558.61231347.2317534.38640347.2397586.86709395.021 1.261-.2187585.39390604-.6310461.64118395-1.081558.64868653z" fill="#444b54" transform="translate(16.483 47.335)"/><path d="m37.408 34.34h-33.2c-2.31595247-.0087726-4.19122736-1.8840475-4.2-4.2v-25.937c.00877264-2.31595247 1.88404753-4.19122736 4.2-4.2h33.2c2.3159525.00877264 4.1912274 1.88404753 4.2000487 4.2v25.892c.0110286 2.3314717-1.8685913 4.2312305-4.2000487 4.245z" fill="#fff" transform="translate(7.194 7.405)"/><path d="m37.408 28.035h-33.2c-2.31595247-.0087726-4.19122736-1.8840475-4.2-4.2v-23.835h41.6030486v23.79c.0110251 2.3326366-1.8704172 4.2328799-4.2030486 4.245z" fill="#fff" transform="translate(7.194 13.71)"/><path d="m0 0v3.573c.00877264 2.31595247 1.88404753 4.19122736 4.2 4.2h33.2c2.3159525-.00877264 4.1912274-1.88404753 4.2-4.2v-3.573z" fill="#7ca7ee" transform="translate(7.194 33.969)"/><path d="m38.669 19.6290111h-33.205c-1.44951776.0029145-2.84055286-.5714036-3.8658002-1.596088-1.02524734-1.0246845-1.60032932-2.415404-1.59820569-3.8649231v-12.9c0-.69643107.56457482-1.261 1.26100589-1.261s1.261.56456893 1.261 1.261v12.9c-.00482733.7817368.3035821 1.532854.85636402 2.085636.55278193.5527819 1.30389919.8611913 2.08563598.856364h33.2c.7826004.0061711 1.5350111-.301645 2.08888-.8545742s.8629621-1.3048161.85812-2.0874258v-12.9c0-.69643107.5645689-1.261 1.261-1.261s1.261.56456893 1.261 1.261v12.9c-.0104333 3.0128649-2.4511298 5.4522213-5.464 5.4610111z" fill="#444b54" transform="translate(5.933 23.377)"/><path d="m42.872 8.826c-.3363323.00630876-.6607512-.12451935-.8986159-.36238407s-.3686929-.56228358-.3623841-.89861593v-2.1c.0048273-.78173679-.3035821-1.53285405-.856364-2.08563598-.552782-.55278192-1.3038992-.86119135-2.085636-.85636402h-33.205c-.78173679-.00482733-1.53285405.3035821-2.08563598.85636402-.55278192.55278193-.86119135 1.30389919-.85636402 2.08563598v2.1c0 .69643107-.56456893 1.261-1.261 1.261s-1.26101113-.56456893-1.26101113-1.261v-2.1c-.00291691-1.45003854.57181256-2.84153022 1.59714673-3.8668644 1.02533418-1.02533417 2.41682586-1.60006364 3.8668644-1.59714673h33.2c1.4500385-.00291691 2.8415302.57181256 3.8668644 1.59714673 1.0253342 1.02533418 1.6000636 2.41682586 1.5973521 3.8668644v2.1c.006053.33545015-.1240961.65908022-.3608649.89679153-.2367688.2377113-.5598792.36914521-.8953516.36420847z" fill="#444b54" transform="translate(5.933 6.144)"/><circle cx="28" cy="37.794" fill="#fff" r="1.345"/><path d="m-.00008766 0v4.623c-.00503537.5585094.21456851 1.09563436.60951091 1.49057675.39494239.3949424.93206735.61454628 1.49057675.60942325h40.436c.5585094.00512303 1.0956344-.21448085 1.4905768-.60942325.3949423-.39494239.6145462-.93206735.6095109-1.49057675v-4.623z" fill="#6acef5" transform="translate(5.681 13.71)"/><path d="m-.00008766 0v4.623c-.00503537.5585094.21456851 1.09563436.60951091 1.49057675.39494239.3949424.93206735.61454628 1.49057675.60942325h41.277c.5585094.00512303 1.0956344-.21448085 1.4905768-.60942325.3949423-.39494239.6145462-.93206735.6095109-1.49057675v-4.623z" fill="#387ae5" transform="translate(5.261 13.71)"/><path d="m0 0h2.522v6.389h-2.522z" fill="#fff" transform="translate(20.434 14.046)"/><path d="m2.26 2.522h2.606c.69643107 0 1.261-.56456893 1.261-1.261s-.56456893-1.261-1.261-1.261h-2.606c-.69643107 0-1.261.56456893-1.261 1.261s.56456893 1.261 1.261 1.261z" fill="#444b54" transform="translate(18.131 19.174)"/><path d="m0 0h2.522v6.389h-2.522z" fill="#fff" transform="translate(14.13 14.046)"/><path d="m1.261 2.522h2.606c.69643107 0 1.261-.56456893 1.261-1.261s-.56456893-1.261-1.261-1.261h-2.606c-.69643107 0-1.261.56456893-1.261 1.261s.56456893 1.261 1.261 1.261z" fill="#444b54" transform="translate(12.827 19.174)"/><path d="m0 0h2.522v6.389h-2.522z" fill="#fff" transform="translate(26.739 14.046)"/><path d="m0 0h2.522v6.389h-2.522z" fill="#fff" transform="translate(33.044 14.046)"/><path d="m0 0h2.522v6.389h-2.522z" fill="#fff" transform="translate(39.349 14.046)"/><path d="m0 0h2.522v6.389h-2.522z" fill="#fff" transform="translate(45.653 14.046)"/><path d="m0 0h2.522v6.389h-2.522z" fill="#fff" transform="translate(7.825 14.046)"/><g fill="#444b54"><path d="m44.637 9.247c-.6964311 0-1.261-.56456893-1.261-1.261s.5645689-1.261 1.261-1.261c.4640153-.00109957.8399004-.37698474.841-.841v-3.362h-42.956v3.36c.00109957.46401526.37698474.83990043.841.841.69643107 0 1.261.56456893 1.261 1.261s-.56456893 1.261-1.261 1.261c-1.85528137-.00494525-3.35805475-1.50771863-3.36321804-3.363v-4.621c-.00609072-.33633235.12473739-.66075121.36260211-.89861593s.56228358-.36869283.89861593-.36238407h45.478c.3363323-.00630876.6607512.12451935.8986159.36238407s.3686929.56228358.3626021.89861593v4.621c-.0040644 1.85606237-1.5071582 3.36005007-3.363218 3.365z" transform="translate(4 12.449)"/><path d="m1.261 2.522h2.606c.69643107 0 1.261-.56456893 1.261-1.261s-.56456893-1.261-1.261-1.261h-2.606c-.69643107 0-1.261.56456893-1.261 1.261s.56456893 1.261 1.261 1.261z" transform="translate(44.35 19.174)"/><path d="m1.261 2.522h2.606c.69643107 0 1.261-.56456893 1.261-1.261s-.56456893-1.261-1.261-1.261h-2.606c-.69643107 0-1.261.56456893-1.261 1.261s.56456893 1.261 1.261 1.261z" transform="translate(38.046 19.174)"/><path d="m1.261 2.522h2.606c.69643107 0 1.261-.56456893 1.261-1.261s-.56456893-1.261-1.261-1.261h-2.606c-.69643107 0-1.261.56456893-1.261 1.261s.56456893 1.261 1.261 1.261z" transform="translate(31.741 19.174)"/><path d="m1.261 2.522h2.606c.69643107 0 1.261-.56456893 1.261-1.261s-.56456893-1.261-1.261-1.261h-2.606c-.69643107 0-1.261.56456893-1.261 1.261s.56456893 1.261 1.261 1.261z" transform="translate(25.436 19.174)"/><path d="m1.263 2.522h2.6c.69643107 0 1.261-.56456893 1.261-1.261s-.56456893-1.261-1.261-1.261h-2.6c-.69643107 0-1.261.56456893-1.261 1.261s.56456893 1.261 1.261 1.261z" transform="translate(6.522 19.174)"/></g></g></svg>