<svg height="56" viewBox="0 0 56 56" width="56" xmlns="http://www.w3.org/2000/svg"><g fill="none"><rect fill="none" height="56" rx="8" width="56"/><path d="m44.964 12.418c-.5363779-1.1280807-1.2519826-2.161807-2.119-3.061-6.435-7.652-18.952-10.634-29.429-6.474-11.34 4.512-16.441 15.695-11.576 25.348 3.728 7.377 12.16 11.654 21.19 11.85 2.6155139.0444256 5.1385962-.9669301 6.9992861-2.8056034 1.86069-1.8386733 2.9020052-4.3495392 2.8887139-6.9653966v-3.923c.0060427-2.1646574 1.7593426-3.9179573 3.924-3.924h2.433c1.0949475-.0508109 2.1544347-.4038579 3.061-1.02 3.0502042-1.897302 4.1827819-5.7867668 2.628-9.025zm-20.129 21.385c-1.6744515 1.0558648-3.8200796.9990262-5.4362813-.1440094-1.6162018-1.1430355-2.3846546-3.147139-1.9469944-5.0777067.4376602-1.9305678 1.9952331-3.4073606 3.9463524-3.7416836s3.911498.5396711 4.9669233 2.2143997c.6929824 1.0976192.9211128 2.4257315.6341217 3.6916812s-1.0655515 2.365845-2.1641217 3.0573188z" fill="#fff" transform="translate(5.167 7.429)"/><path d="m6.096 12.139c-.46246522.0059547-.92381685-.0468-1.373-.157-2.81120965-.6666923-4.76061207-3.22553474-4.65695714-6.11285772s2.23152747-5.29979121 5.08330713-5.76318211c2.85177965-.4633909 5.63402031 1.15122404 6.64653711 3.85717823s-.0264012 5.75037431-2.4818871 7.2728616c-.97031447.5886745-2.08307991.9009266-3.218.903zm-.039-9.81c-.69109155.00592494-1.36819645.19539007-1.962.549-1.73597703 1.10031684-2.26118078 3.39389994-1.177 5.14.53140836.82623086 1.36033752 1.41632816 2.315 1.648.96655213.22216164 1.98172583.05398419 2.825-.468 1.41528012-.87893656 2.0718615-2.59295473 1.60599942-4.19249211-.46586206-1.59953739-1.94010419-2.69295748-3.60599942-2.67450789z" fill="#444b54" transform="translate(21.315 31.016)"/><path d="m24.235 41.375c-9.967 0-18.286-4.672-22.249-12.478-2.31996022-4.4898847-2.61959223-9.7548992-.824-14.479 2.082-5.494 6.828-10.046 12.988-12.479 10.673-4.236 23.894-1.336 30.764 6.789l.353.432c.7959668.8409582 1.445906 1.8089384 1.923 2.864 1.8179617 3.7843429.4995674 8.330456-3.061 10.555-1.0775737.7408307-2.3424337 1.1623352-3.649 1.216h-2.436c-1.0780492.0010335-2.057123.6287651-2.508 1.608-.1752388.3854896-.5428223.6482079-.9642855.6891914-.4214631.0409836-.8327756-.145994-1.079-.4905-.2462243-.344506-.2899533-.7942018-.1147145-1.1796914.8440238-1.8158534 2.6635783-2.9783249 4.666-2.981h2.433c.8745909-.0600925 1.716024-.358554 2.433-.863 2.5461826-1.5836911 3.4938397-4.8289857 2.2-7.534-.4025206-.8588482-.9317575-1.6523665-1.57-2.354l-.353-.432c-6.317-7.416-18.364-10.045-28.173-6.161-5.27262171 1.92072364-9.49941465 5.9625445-11.654 11.144-1.55968281 4.1104548-1.3031103 8.6895109.706 12.6 3.532 7.024 11.065 11.183 20.169 11.183 4.2275163.0468156 7.8659211-2.977214 8.593-7.142.1082478-.6500391.7229609-1.0892478 1.373-.981s1.0892478.7229609.981 1.373c-.938269 5.2993663-5.566412 9.1462883-10.948 9.1z" fill="#444b54" transform="translate(4 7.313)"/><circle cx="6.112318" cy="6.112623" fill="#387ae5" r="4.434" transform="matrix(.84706627 -.53148729 .53148729 .84706627 23.650998 14.549446)"/><circle cx="6.112318" cy="6.112623" fill="#19488e" r="4.434" transform="matrix(.84706627 -.53148729 .53148729 .84706627 33.461998 19.650446)"/><circle cx="6.112318" cy="6.112623" fill="#7ca7ee" r="4.434" transform="matrix(.84706627 -.53148729 .53148729 .84706627 12.619998 16.277446)"/><circle cx="6.112318" cy="6.112623" fill="#edf3fd" r="4.434" transform="matrix(.84706627 -.53148729 .53148729 .84706627 5.212998 24.951446)"/></g></svg>