<svg height="56" viewBox="0 0 56 56" width="56" xmlns="http://www.w3.org/2000/svg"><g fill="none"><rect fill="none" height="56" rx="8" width="56"/><path d="m0 0h46.716v34.314h-46.716z" fill="#fff" transform="translate(5.257 10.218)"/><path d="m47.692 21.687h-5.747c-.3306798.0060288-.6495936-.1226768-.8834584-.3565416s-.3625704-.5527786-.3565416-.8834584v-7.442c-.0060288-.3306798.1226768-.6495936.3565416-.8834584s.5527786-.3625704.8834584-.3565416h5.746c.6072893.0114939 1.1407114-.4012632 1.282-.992.0743577-.3623328-.0170567-.7389386-.2492522-1.0268611-.2321956-.28792249-.5808865-.45704719-.9507478-.4611389h-5.787c-.3306798.00602882-.6495936-.12267678-.8834584-.35654157s-.3625704-.55277863-.3565416-.88345843v-5.747c.007324-.45051192-.2262537-.87070938-.6127465-1.10230806s-.8671833-.23941324-1.261-.0205-.6409296.63129614-.6482535 1.08180806v5.788c.0060288.3306798-.1226768.64959364-.3565416.88345843s-.5527786.36257039-.8834584.35654157h-7.445c-.3306798.00602882-.6495936-.12267678-.8834584-.35654157s-.3625704-.55277863-.3565416-.88345843v-5.747c.0114939-.60728934-.4012632-1.14071137-.992-1.282-.3677036-.06549853-.7455653.03470906-1.0324895.27381256-.2869242.23910351-.4536281.59270056-.4555105.96618744v5.788c.0060288.3306798-.1226768.64959364-.3565416.88345843s-.5527786.36257039-.8834584.35654157h-7.44c-.3306798.00602882-.6495936-.12267678-.8834584-.35654157s-.3625704-.55277863-.3565416-.88345843v-5.746c.0114939-.60728934-.4012632-1.14071137-.992-1.282-.3680465-.06555704-.7462501.03490304-1.0332517.27445685-.2870017.23955381-.4534543.59370587-.4547483.96754315v5.788c.0060288.3306798-.1226768.64959364-.3565416.88345843s-.5527786.36257039-.8834584.35654157h-9.881c-.60728934-.01149395-1.14071137.40126319-1.282.992-.06549853.3677036.03470906.7455653.27381256 1.0324895.23910351.2869242.59270056.4536281.96618744.4555105h9.923c.3306798-.0060288.6495936.1226768.8834584.3565416s.3625704.5527786.3565416.8834584v7.441c.0060288.3306798-.1226768.6495936-.3565416.8834584s-.5527786.3625704-.8834584.3565416h-9.881c-.60728934-.0114939-1.14071137.4012632-1.282.992-.06549853.3677036.03470906.7455653.27381256 1.0324895.23910351.2869242.59270056.4536281.96618744.4555105h9.923c.3306798-.0060288.6495936.1226768.8834584.3565416s.3625704.5527786.3565416.8834584v9.881c-.0114939.6072893.4012632 1.1407114.992 1.282.3623328.0743577.7389386-.0170567 1.0268611-.2492522.2879225-.2321956.4570472-.5808865.4611389-.9507478v-9.962c-.0060288-.3306798.1226768-.6495936.3565416-.8834584s.5527786-.3625704.8834584-.3565416h7.441c.3306798-.0060288.6495936.1226768.8834584.3565416s.3625704.5527786.3565416.8834584v9.881c-.0114939.6072893.4012632 1.1407114.992 1.282.3623328.0743577.7389386-.0170567 1.0268611-.2492522.2879225-.2321956.4570472-.5808865.4611389-.9507478v-9.963c-.0060288-.3306798.1226768-.6495936.3565416-.8834584s.5527786-.3625704.8834584-.3565416h7.441c.3306798-.0060288.6495936.1226768.8834584.3565416s.3625704.5527786.3565416.8834584v9.881c-.0114939.6072893.4012632 1.1407114.992 1.282.3623328.0743577.7389386-.0170567 1.0268611-.2492522.2879225-.2321956.4570472-.5808865.4611389-.9507478v-9.963c-.0060288-.3306798.1226768-.6495936.3565416-.8834584s.5527786-.3625704.8834584-.3565416h5.788c.3726346.0037685.7264901-.1632568.9604243-.4533352.2339343-.2900785.3222027-.6712869.2395757-1.0346648-.121174-.5846158-.6400134-1.0011134-1.237-.993zm-31.792-1.24v-7.442c-.0060288-.3306798.1226768-.6495936.3565416-.8834584s.5527786-.3625704.8834584-.3565416h7.441c.3306798-.0060288.6495936.1226768.8834584.3565416s.3625704.5527786.3565416.8834584v7.441c.0060288.3306798-.1226768.6495936-.3565416.8834584s-.5527786.3625704-.8834584.3565416h-7.442c-.3303313.0057462-.6488255-.1229449-.8824403-.3565597s-.3623059-.552109-.3565597-.8824403zm12.4 0v-7.442c-.0060288-.3306798.1226768-.6495936.3565416-.8834584s.5527786-.3625704.8834584-.3565416h7.441c.3306798-.0060288.6495936.1226768.8834584.3565416s.3625704.5527786.3565416.8834584v7.441c.0060288.3306798-.1226768.6495936-.3565416.8834584s-.5527786.3625704-.8834584.3565416h-7.442c-.3299873.005198-.6479585-.1237352-.8811351-.3572888-.2331767-.2335537-.361596-.5517327-.3558649-.8817112z" fill="#edf3fd" transform="translate(3 9.201)"/><g fill="#387ae5"><path d="m1.241 6.614c-.3306798.00602882-.64959364-.12267678-.88345843-.35654157-.23386479-.23386479-.36257039-.55277863-.35654157-.88345843v-4.134c0-.68483309.55516691-1.24 1.24-1.24s1.24.55516691 1.24 1.24v4.134c.00602882.3306798-.12267678.64959364-.35654157.88345843s-.55277863.36257039-.88345843.35654157z" transform="translate(41.225 10.218)"/><path d="m18.781 24.115c-.3298655.0091817-.6471554-.1267997-.868-.372l-11.2-11.2-3.349 6.367c-.31977288.6163498-1.07865022.8567728-1.69499999.537-.61634976-.3197729-.85677286-1.0786502-.53700001-1.695l4.134-7.855c.19463908-.34051841.52598331-.58119812.91-.661.38819348-.03800723.77541766.0812218 1.075.331l11.287 11.282 9.467-15.751c-.5074911.04334792-.9930918-.21550856-1.24-.661-.291126-.60629198-.0547496-1.33434903.537-1.654l3.307-1.654c.4911904-.24686427 1.0864728-.13873219 1.4594636.26510919.3729907.40384137.4335754 1.00582408.1485364 1.47589081l-12.4 20.671c-.1975853.3232305-.5335021.5369622-.91.579z" transform="translate(11.281 9.254)"/><path d="m2.241 2.553c-.08476879.00665731-.16988431-.0074142-.248-.041-.08784911-.00869927-.17261201-.0370675-.248-.083-.083-.041-.124-.083-.207-.124-.07363936-.03251742-.13248258-.09136064-.165-.165-.25092796-.19890999-.38963995-.50728316-.372-.827-.00665731-.08476879.0074142-.16988431.041-.248.00869927-.08784911.0370675-.17261201.083-.248.041-.083.083-.124.124-.207.0418495-.07852874.09777904-.14869488.165-.207l.165-.165c.083-.041.124-.083.207-.124s.165-.041.248-.083c.16402168-.04199198.33597832-.04199198.5 0 .08784911.00869927.17261201.0370675.248.083.07425324.03185424.14387886.07356234.207.124.07363936.03251742.13248258.09136064.165.165.06490223.06049011.12050352.13024444.165.207.041.083.083.124.124.207s.041.165.083.248c0 .083.041.165.041.248.00665731.08476879-.0074142.16988431-.041.248-.00869927.08784911-.0370675.17261201-.083.248-.03185424.07425324-.07356234.14387886-.124.207-.03251742.07363936-.09136064.13248258-.165.165-.2426449.24064492-.57126902.37454215-.913.372z" transform="translate(8.805 30.816)"/></g><path d="m46.716 35.5532027h-45.476c-.3306798.0058261-.64959364-.1228795-.88345843-.3567443-.23386479-.2338648-.36257039-.5527786-.35674423-.8834584v-33.073c-.00582616-.3306798.12287944-.64959364.35674423-.88345843.23386479-.23386479.55277863-.36257039.88345843-.35674423.3306798-.00582616.64959364.12287944.88345843.35674423s.36257039.55277863.35654157.88345843v31.833h44.236c.6848331 0 1.24.5551669 1.24 1.24s-.5551669 1.2402027-1.24 1.2402027z" fill="#444b54" transform="translate(4.017 10.218)"/></g></svg>