<?xml version="1.0" encoding="UTF-8"?>
<svg viewBox="0 0 72 72" xmlns="http://www.w3.org/2000/svg">
<defs>
<style>.cls-1,.cls-5{fill:#fff}.cls-1{stroke:#707070}.cls-2{fill:#edf3fd}.cls-3{fill:rgba(255,255,255,0)}.cls-4{clip-path:url(#a)}.cls-6{fill:#7ca7ee}.cls-7{fill:#387ae5}.cls-8{fill:#444b54}</style>
<clipPath id="a">
<path class="cls-1" transform="translate(1028 1581)" d="M0 0h32v32H0z" data-name="Rectangle 4573"/>
</clipPath>
</defs>
<g transform="translate(3354 73)" data-name="Group 12819">
<circle class="cls-2" transform="translate(-3354 -73)" cx="36" cy="36" r="36" data-name="Ellipse 719"/>
<path class="cls-3" transform="translate(-3342 -61)" d="M0 0h48v48H0z" data-name="Rectangle 4568"/>
<g class="cls-4" transform="translate(-4362 -1634)" data-name="Mask Group 68">
<g transform="translate(1029.2 1581)">
<g transform="translate(.828 .828)" data-name="Group 12801">
<g data-name="Group 12794">
<path class="cls-5" transform="translate(-9.103 -3.724)" d="M29.517 34.069H11.862A2.767 2.767 0 0 1 9.1 31.31V6.483a2.767 2.767 0 0 1 2.759-2.759h17.658a2.767 2.767 0 0 1 2.759 2.759V31.31a2.767 2.767 0 0 1-2.759 2.759z" data-name="Path 13335"/>
</g>
<g transform="translate(4.69 12.966)" data-name="Group 12795">
<path class="cls-6" transform="translate(-16.138 -23.172)" d="M29.1 24.828H16.966a.828.828 0 1 1 0-1.655H29.1a.828.828 0 0 1 0 1.655z" data-name="Path 13336"/>
</g>
<g transform="translate(7.448 4.69)" data-name="Group 12796">
<path class="cls-6" transform="translate(-20.276 -10.759)" d="M27.724 12.414H21.1a.828.828 0 1 1 0-1.655h6.621a.828.828 0 0 1 0 1.655z" data-name="Path 13337"/>
</g>
<g transform="translate(4.69 17.103)" data-name="Group 12797">
<path class="cls-6" transform="translate(-16.138 -29.379)" d="M29.1 31.034H16.966a.828.828 0 1 1 0-1.655H29.1a.828.828 0 0 1 0 1.655z" data-name="Path 13338"/>
</g>
<g transform="translate(4.69 21.241)" data-name="Group 12798">
<path class="cls-6" transform="translate(-16.138 -35.586)" d="M24.69 37.241h-7.724a.828.828 0 1 1 0-1.655h7.724a.828.828 0 1 1 0 1.655z" data-name="Path 13339"/>
</g>
<g transform="translate(17.655 20.138)" data-name="Group 12799">
<circle class="cls-7" cx="5.517" cy="5.517" r="5.517" data-name="Ellipse 716"/>
</g>
<g transform="translate(20.405 21.6)" data-name="Group 12800">
<path class="cls-5" transform="translate(-39.711 -36.124)" d="M46.2 36.124l-3.7 4.138-1.324-1.71a.825.825 0 1 0-1.3 1.021l1.931 2.483a.9.9 0 0 0 .634.331h.028a.79.79 0 0 0 .607-.276l4.166-4.69a5.847 5.847 0 0 0-1.042-1.297z" data-name="Path 13340"/>
</g>
</g>
<g data-name="Group 12803">
<g data-name="Group 12802">
<path class="cls-8" transform="translate(-7.862 -2.483)" d="M11.448 34.483h14.069a.828.828 0 1 0 0-1.655H11.448A1.919 1.919 0 0 1 9.517 30.9V6.069a1.919 1.919 0 0 1 1.931-1.931H29.1a1.9 1.9 0 0 1 1.379.579 1.939 1.939 0 0 1 .555 1.383l-.028 14.621a.813.813 0 0 0 .828.828.813.813 0 0 0 .828-.828L32.69 6.1a3.626 3.626 0 0 0-3.59-3.617H11.448a3.579 3.579 0 0 0-3.586 3.586V30.9a3.579 3.579 0 0 0 3.586 3.583z" data-name="Path 13341"/>
</g>
</g>
</g>
</g>
</g>
</svg>
