<svg height="56" viewBox="0 0 56 56" width="56" xmlns="http://www.w3.org/2000/svg"><g fill="none"><rect fill="none" height="56" rx="8" width="56"/><g transform="translate(4 7.804)"><path d="m41.674 37.9120048h-37.871c-1.00831104.0015911-1.97578341-.3982525-2.68876788-1.1112369-.71298447-.7129845-1.11282797-1.6804569-1.11123688-2.6887679v-30.3c-.00159109-1.00831104.39825241-1.97578341 1.11123688-2.68876788s1.68045684-1.11282797 2.68876788-1.11123688h37.912c1.008311-.00159109 1.9757834.39825241 2.6887679 1.11123688.7129844.71298447 1.112828 1.68045684 1.1112369 2.68876788v30.3c-.0305182 2.1018819-1.7389165 3.7920442-3.8410048 3.8000048z" fill="#fff" transform="translate(1.24 2.24)"/><path d="m1.24 24.682c-.3306798.0060288-.64959364-.1226768-.88345843-.3565416-.23386479-.2338648-.36257039-.5527786-.35654157-.8834584v-22.2c0-.68510923.55539077-1.2405 1.2405-1.2405s1.2405.55539077 1.2405 1.2405v22.242c-.00283728.3243567-.13589298.6339688-.36926404.8592536-.23337105.2252849-.54748082.3473443-.87173596.3387464z" fill="#7ca7ee" transform="translate(12.693 15.76)"/><path d="m46.478 7.607h-45.48000476v-3.8c-.00159109-1.00831104.39825241-1.97578341 1.11123688-2.68876788s1.68045684-1.11282797 2.68876788-1.11123688h37.917c1.008311-.00159109 1.9757834.39825241 2.6887679 1.11123688.7129844.71298447 1.112828 1.68045684 1.1112369 2.68876788l-.0410048 3.8z" fill="#edf3fd" transform="translate(.24 2.24)"/><path d="m2.239 0h18.357c.331195-.00685471.650895.12148598.8854183.3554432.2345232.23395722.3636361.55334618.3577854.8845568v5.085c.0058251.3306798-.1228805.64959364-.3567453.88345843s-.5527786.36257039-.8834584.35654157h-18.36c-.3306798.00602882-.64959364-.12267678-.88345843-.35654157s-.36257038-.55277863-.35674423-.88345843v-5.085c-.00582615-.3306798.12287944-.64959364.35674423-.88345843.23386479-.23386479.55277863-.36257039.88345843-.35654157z" fill="#7ca7ee" transform="translate(19.175 15.553)"/><path d="m2.239 0h5.085c.3306798-.00602882.64959364.12267678.88345843.35654157s.36257039.55277863.35654157.88345843v5.085c.00602882.3306798-.12267678.64959364-.35654157.88345843s-.55277863.36257039-.88345843.35654157h-5.085c-.3306798.00602882-.64959364-.12267678-.88345843-.35654157s-.36257038-.55277863-.35654157-.88345843v-5.085c-.00602881-.3306798.12267678-.64959364.35654157-.88345843.23386479-.23386479.55277863-.36257039.88345843-.35654157z" fill="#387ae5" transform="translate(19.175 26.923)"/><path d="m42.956.995h-37.912c-2.78117078.01096257-5.03303743 2.26282922-5.044 5.044v30.3c.00437933 2.7858559 2.25816235 5.0450008 5.044 5.056h37.871c2.7890807-.0080352 5.0543862-2.2550758 5.085-5.044v-30.3c-.0043793-2.78585592-2.2581624-5.04500084-5.044-5.056zm-40.475 5.09c.00711074-1.41254996 1.15045004-2.55588926 2.563-2.563v-.041h37.871c1.41255.00711074 2.5558893 1.15045004 2.563 2.563v2.563h-43zm40.475 32.868h-37.912c-1.41061349-.0070846-2.55316089-1.147403-2.563-2.558v-25.3h43.039v25.3c-.0098445 1.4109847-1.1529962 2.5514613-2.564 2.558z" fill="#464c55"/><g fill="#387ae5"><path d="m1.447 2.894c-.79915603 0-1.447-.64784397-1.447-1.447s.64784397-1.447 1.447-1.447 1.447.64784397 1.447 1.447c-.02395761.78901945-.65798055 1.42304239-1.447 1.447z" transform="translate(4.548 4.597)"/><path d="m1.448 2.894c-.79915603 0-1.447-.64784397-1.447-1.447s.64784397-1.447 1.447-1.447 1.447.64784397 1.447 1.447c-.00971057.79509905-.65190095 1.43728943-1.447 1.447z" transform="translate(8.31 4.597)"/><path d="m1.447 2.894c-.79915603 0-1.447-.64784397-1.447-1.447s.64784397-1.447 1.447-1.447 1.447.64784397 1.447 1.447c-.02395761.78901945-.65798055 1.42304239-1.447 1.447z" transform="translate(12.114 4.597)"/></g><g fill="#7ca7ee"><path d="m8.806 2.481h-7.562c-.68510923 0-1.2405-.55539077-1.2405-1.2405s.55539077-1.2405 1.2405-1.2405h7.566c.68510923 0 1.2405.55539077 1.2405 1.2405s-.55539077 1.2405-1.2405 1.2405z" transform="translate(30.553 26.798)"/><path d="m8.806 3.478h-7.562c-.68510923 0-1.2405-.55539077-1.2405-1.2405s.55539077-1.2405 1.2405-1.2405h7.566c.68510923 0 1.2405.55539077 1.2405 1.2405s-.55539077 1.2405-1.2405 1.2405z" transform="translate(30.553 31.09)"/></g></g></g></svg>