<?xml version="1.0" encoding="UTF-8"?>
<svg viewBox="0 0 72 72" xmlns="http://www.w3.org/2000/svg">
<defs>
<style>.cls-1,.cls-5{fill:#fff}.cls-1{stroke:#707070}.cls-2{fill:#edf3fd}.cls-3{fill:rgba(255,255,255,0)}.cls-4{clip-path:url(#a)}.cls-6{fill:#387ae5}.cls-7{fill:#444b54}.cls-8{fill:#7ca7ee}</style>
<clipPath id="a">
<path class="cls-1" transform="translate(452 2120)" d="M0 0h32v32H0z" data-name="Rectangle 4569"/>
</clipPath>
</defs>
<g transform="translate(3478 73)" data-name="Group 12818">
<circle class="cls-2" transform="translate(-3478 -73)" cx="36" cy="36" r="36" data-name="Ellipse 718"/>
<path class="cls-3" transform="translate(-3466 -61)" d="M0 0h48v48H0z" data-name="Rectangle 4568"/>
<g class="cls-4" transform="translate(-3910 -2173)" data-name="Mask Group 65">
<g transform="translate(452.59 2120)">
<g data-name="Group 12745">
<g data-name="Group 12744">
<g transform="translate(.898 .883)" data-name="Group 12736">
<path class="cls-5" transform="translate(-7.18 -3.889)" d="M19.147 33.806a24.225 24.225 0 0 0 11.967-20.972V8.317L19.147 3.889 7.18 8.317v4.517a24.225 24.225 0 0 0 11.967 20.972" data-name="Path 13307"/>
</g>
<g transform="translate(18.863 20.013)" data-name="Group 12738">
<g data-name="Group 12737">
<path class="cls-6" transform="translate(-25.145 -23.02)" d="M26.9 33.238a5.989 5.989 0 0 1 8.287-8.646c.06.06-.209.748-.15.808a4.45 4.45 0 0 0 .957.6c.09.03-.15.3-.06.3.03 0 .359-.359.389-.3a6 6 0 0 1-.957 7.21 5.915 5.915 0 0 1-8.466.028z" data-name="Path 13308"/>
</g>
</g>
<g transform="translate(21.86 21.645)" data-name="Group 12740">
<g data-name="Group 12739">
<path class="cls-5" transform="translate(-28.142 -24.652)" d="M29.738 27.284a.895.895 0 1 0-1.406 1.107l2.094 2.693a.976.976 0 0 0 .688.359h.03a.857.857 0 0 0 .658-.3l4.517-5.086a5.219 5.219 0 0 0-1.137-1.406l-4.009 4.488z" data-name="Path 13309"/>
</g>
</g>
<g data-name="Group 12741">
<path class="cls-7" transform="translate(-6.283 -3.007)" d="M19.147 34.7a.844.844 0 0 1-.449-.12A25.072 25.072 0 0 1 6.283 12.834V8.317a.871.871 0 0 1 .6-.838l11.965-4.427a1.122 1.122 0 0 1 .628 0l11.937 4.427a.9.9 0 0 1 .6.838v4.517a25.686 25.686 0 0 1-.957 6.911.9.9 0 1 1-1.735-.479 22.961 22.961 0 0 0 .868-6.4V8.975L19.147 4.847 8.078 8.945v3.889A23.277 23.277 0 0 0 19.6 33.028a.916.916 0 0 1 .329 1.227.9.9 0 0 1-.782.445z" data-name="Path 13310"/>
</g>
<g transform="translate(11.966 27.948)" data-name="Group 12742">
<path class="cls-7" transform="translate(-18.248 -30.954)" d="M19.147 34.7a.9.9 0 0 1-.778-.449.889.889 0 0 1 .329-1.227 24.849 24.849 0 0 0 2.752-1.885.895.895 0 0 1 1.107 1.406 22.561 22.561 0 0 1-2.957 2.039.844.844 0 0 1-.453.116z" data-name="Path 13311"/>
</g>
<g transform="translate(3.56 3.829)" data-name="Group 12743">
<path class="cls-8" transform="translate(-9.843 -6.836)" d="M19.147 30.4a.9.9 0 0 1-.539-.18 21.369 21.369 0 0 1-8.556-14.51.905.905 0 0 1 1.8-.239 19.62 19.62 0 0 0 7.3 12.864A19.637 19.637 0 0 0 26.626 12.8v-1.372l-7.479-2.752-8.078 2.992a.909.909 0 1 1-.628-1.705l8.407-3.081a1.122 1.122 0 0 1 .628 0l8.377 3.111a.9.9 0 0 1 .6.838v2a21.361 21.361 0 0 1-8.736 17.382 1.057 1.057 0 0 1-.57.187z" data-name="Path 13312"/>
</g>
</g>
</g>
<g transform="translate(12.864 4.712)" data-name="Group 12747">
<g data-name="Group 12746">
<path class="cls-8" transform="translate(-19.147 -7.719)" d="M19.147 7.719V29.5a20.55 20.55 0 0 0 8.377-16.664v-2z" data-name="Path 13313"/>
</g>
</g>
</g>
</g>
</g>
</svg>
