<svg xmlns="http://www.w3.org/2000/svg" width="72" height="72" viewBox="0 0 72 72">
    <defs>
        <style>
            .prefix__cls-2{fill:#fff}.prefix__cls-4{fill:#454b54}.prefix__cls-5{fill:#7ca7ee}
        </style>
    </defs>
    <g id="prefix__Group_14475" data-name="Group 14475" transform="translate(21128 -17847)">
        <rect id="prefix__Rectangle_4260" width="72" height="72" fill="rgba(255,255,255,0)" data-name="Rectangle 4260" rx="8" transform="translate(-21128 17847)"/>
        <g id="prefix__icons8-rocket" transform="translate(-21139.699 17835.4)">
            <path id="prefix__Path_14249" d="M36.076 56.3H27.8a4.981 4.981 0 0 0-5 5v2.1l10.621 3.581zm6.237 19.575l3.581 10.683h2.1a4.981 4.981 0 0 0 5-5v-8.709z" class="prefix__cls-2" data-name="Path 14249" transform="translate(-1.186 -12.81)"/>
            <path id="prefix__Path_14250" d="M48.892 63.011L40 54.119l.617-3.025A35.341 35.341 0 0 1 80.014 23l.123 1.605a35.349 35.349 0 0 1-28.59 37.914l-2.655.493" class="prefix__cls-2" data-name="Path 14250" transform="translate(-6.507 -1.174)"/>
            <path id="prefix__Path_14251" fill="#c6dafb" d="M82.77 23.166c-.986 0-1.126.947-2.266.947.555 17.228-12.721 31.307-29.887 34.58l-2.717.494 4.014 4.013 2.655-.494a35.35 35.35 0 0 0 28.59-37.914l-.124-1.605-.055-.007a1.709 1.709 0 0 0-.211-.014" data-name="Path 14251" transform="translate(-9.528 -1.364)"/>
            <path id="prefix__Path_14252" d="M47.759 63.689a1.682 1.682 0 0 1-1.3-.556l-8.892-8.892a1.831 1.831 0 0 1-.494-1.667l.618-3.026A37.336 37.336 0 0 1 74.188 19.6a45.308 45.308 0 0 1 5 .309 1.84 1.84 0 0 1 1.612 1.667l.123 1.605a37.042 37.042 0 0 1-30.072 39.89l-2.717.617zm-6.854-11.362l7.472 7.473 1.729-.309a33.393 33.393 0 0 0 27.108-35.939v-.062a25.815 25.815 0 0 0-3.087-.123A33.576 33.576 0 0 0 41.276 50.29z" class="prefix__cls-4" data-name="Path 14252" transform="translate(-5.374)"/>
            <path id="prefix__Path_14253" d="M78.281 37.1a5.681 5.681 0 1 0 5.681 5.681 5.681 5.681 0 0 0-5.681-5.681z" class="prefix__cls-5" data-name="Path 14253" transform="translate(-19.287 -6.388)"/>
            <path id="prefix__Path_14254" d="M32.235 67.688a.918.918 0 0 1-.556-.123L21 63.983a1.917 1.917 0 0 1-1.3-1.729v-2.1a6.878 6.878 0 0 1 6.854-6.854h8.336a1.852 1.852 0 1 1 0 3.7h-8.274a3.163 3.163 0 0 0-3.149 3.149v.751l9.386 3.149a1.842 1.842 0 0 1 1.173 2.346 1.909 1.909 0 0 1-1.791 1.293zm14.511 19.574h-2.1a1.779 1.779 0 0 1-1.729-1.3L39.4 75.345a1.855 1.855 0 1 1 3.52-1.173l3.149 9.386h.741a3.163 3.163 0 0 0 3.149-3.149V71.7a1.852 1.852 0 0 1 3.7 0v8.707a6.892 6.892 0 0 1-6.913 6.855z" class="prefix__cls-4" data-name="Path 14254" transform="translate(0 -11.662)"/>
            <path id="prefix__Path_14255" d="M33.978 83.214l3.89 3.89a5.085 5.085 0 0 1-4.693 6.854L27 94.082l.062-6.113a5.177 5.177 0 0 1 6.916-4.755z" class="prefix__cls-5" data-name="Path 14255" transform="translate(-2.792 -22.99)"/>
            <path id="prefix__Path_14256" d="M25.852 94.782a1.682 1.682 0 0 1-1.3-.556A1.916 1.916 0 0 1 24 92.867l.062-6.113a6.972 6.972 0 0 1 6.916-6.854 6.622 6.622 0 0 1 2.408.432 1.6 1.6 0 0 1 .679.432l3.89 3.89a2.55 2.55 0 0 1 .432.679 6.877 6.877 0 0 1-.8 6.36 7.113 7.113 0 0 1-5.619 3.026l-6.113.062zM31.039 83.6a3.189 3.189 0 0 0-3.211 3.211l-.062 4.261 4.261-.062a3.279 3.279 0 0 0 3.15-4.01L31.9 83.729a4.844 4.844 0 0 0-.861-.129z" class="prefix__cls-4" data-name="Path 14256" transform="translate(-1.645 -21.837)"/>
        </g>
    </g>
</svg>
