<svg height="56" viewBox="0 0 56 56" width="56" xmlns="http://www.w3.org/2000/svg"><g fill="none"><rect fill="none" height="56" rx="8" width="56"/><g transform="translate(4.325 4)"><path d="m37.149 46.8530965h-26.765c-.50864968.0050349-.99796152-.1947591-1.35764946-.554447-.35968794-.359688-.55948199-.8489998-.554447-1.3576495v-19.115c-.00503499-.5086497.19475906-.9979615.554447-1.3576495.35968794-.3596879.84899978-.5594819 1.35764946-.554447h26.765c.5086497-.0050349.9979615.1947591 1.3576495.554447.3596879.359688.5594819.8489998.554447 1.3576495v19.115c.0050349.5086497-.1947591.9979615-.554447 1.3576495-.359688.3596879-.8489998.5594819-1.3576495.554447z" fill="#fff"/><path d="m8.47190354 41.882v-16.056c-.00503499-.5086497.19475906-.9979615.554447-1.3576495.35968794-.3596879.84899978-.5594819 1.35764946-.554447h26.765c.5086497-.0050349.9979615.1947591 1.3576495.554447.3596879.359688.5594819.8489998.554447 1.3576495v16.056z" fill="#444b54"/><circle cx="23.766" cy="35.382" fill="#fff" r="7.647"/><circle cx="23.766" cy="35.382" fill="#7ca7ee" r="4.588"/><g fill="#444b54"><path d="m37.149 22.764h-17.971v-1.144c.0054776-.3058496-.1136069-.600787-.32991-.81709-.216303-.2163031-.5112404-.3353876-.81709-.3300909h-3.824c-.3058496-.0052967-.600787.1137878-.81709.3300909-.2163031.216303-.3353876.5112404-.32991.81709v1.147h-2.677c-1.68466638.005471-3.04977221 1.3683448-3.058 3.053v19.121c.00494275 1.6873875 1.37161254 3.0540573 3.059 3.059h26.765c1.6873875-.0049427 3.0540573-1.3716125 3.059-3.059v-19.121c-.0065882-1.6862158-1.3727786-3.0510663-3.059-3.056zm.765 22.177c-.0010991.4220417-.3429583.7639009-.765.765h-26.766c-.42204174-.0010991-.76390093-.3429583-.765-.765v-19.121c.00109907-.4220417.34295826-.7639009.765-.765h26.766c.4220417.0010991.7639009.3429583.765.765z"/><path d="m42.884 32.706h-.153c-.6189328-.0811696-1.0600946-.6412764-.994-1.262l.918-7.647c.0802281-.6173319.6423581-1.0551013 1.2605347-.9816654.6181767.0734359 1.0621001.6307187.9954653 1.2496654l-.918 7.647c-.0504069.5715882-.5353236 1.0062205-1.109.994z"/><path d="m4.649 32.705c-.5609766-.0054935-1.04053132-.4051921-1.147-.956l-2.295-13.882c-.89143413-5.3384264 1.09743973-10.75139672 5.23316179-14.24270794 4.13572211-3.49131123 9.80565711-4.54378635 14.91883821-2.76929206l6.69 2.294c2.9959707 1.02887408 6.1909561 1.34323598 9.33.918 2.4319761-.3516095 4.8865488.47140518 6.615 2.218 1.7565903 1.72522678 2.6053249 4.1726459 2.294 6.615l-.765 6.156c-.0802281.6173319-.6423581 1.0551013-1.2605347.9816654-.6181767-.0734359-1.0621001-.6307187-.9954653-1.2496654l.765-6.156c.2111615-1.7330914-.3923608-3.46625093-1.6343175-4.69333626-1.2419567-1.22708532-2.9822605-1.80968645-4.7126825-1.57766374-3.4998549.46321335-7.0594311.10999387-10.4-1.032l-6.692-2.295c-4.3549705-1.49716267-9.1763378-.59501658-12.69534609 2.37547904-3.51900834 2.97049562-5.21760774 7.57203996-4.47265391 12.11652096l2.294 13.879c.05164776.3050519-.02070827.6180959-.2009832.8695419-.18027494.251446-.45352882.4204558-.7590168.4694581 0-.039-.034-.039-.11-.039z"/><path d="m23.766 44.176c-3.556841 0-6.7634525-2.1425893-8.1245966-5.4286819s-.6087668-7.0685488 1.9062996-9.5836151c2.5150663-2.5150664 6.2975225-3.2674437 9.5836151-1.9062996s5.4286819 4.5677556 5.4286819 8.1245966c-.0033094 4.8554206-3.9385794 8.7906906-8.794 8.794zm0-15.2940019c-3.5898509 0-6.5 2.910151-6.5 6.5 0 3.5898528 2.9101491 6.5 6.5 6.5s6.5-2.9101472 6.5-6.5c.0013279-1.724312-.6830651-3.3783841-1.9023395-4.5976586-1.2192745-1.2192744-2.8733466-1.9036674-4.5976605-1.9023414z"/></g><g fill="#fff"><circle cx="34.473" cy="29.647" r="1.912"/><circle cx="14.59" cy="39.206" r="1.147"/><circle cx="20.325" cy="32.706" r="1.912"/></g></g></g></svg>