<svg xmlns="http://www.w3.org/2000/svg" viewBox="0 0 3000 3000"><g data-name="Layer 2"><g data-name="Layer 1"><rect width="3000" height="3000" fill="none"/><path fill="#fff" stroke="#1a1a1a" stroke-linecap="round" stroke-linejoin="round" stroke-width="4.198" d="M1241.61733,2499.53455H2830.3695s-130.21533,243.62743-858.38836,225.67252-653.45105-132.72628-653.45105-132.72628-306.21361-3.943-347.23744-37.35285-336.21843,48.69484-486.04392,9.13873,0-63.68532,0-63.68532Z"/><path fill="#fff" stroke="#1a1a1a" stroke-linecap="round" stroke-linejoin="round" stroke-width="4.198" d="M275.0117,2500.58135h2559.914c128.70754-287.85171-29.23675-580.59069-224.06251-630.74714-176.44589-45.42472-425.20693,97.29254-492.93746,366.90239-32.21537-30.90071-119.66914-106.06376-249.26953-117.63281-160.38877-14.31746-320.60226,74.54117-414.51563,226.8632-26.26315-25.03953-296.5099-273.91152-672.18751-201.65628C459.063,2206.413,300.06131,2459.23689,275.0117,2500.58135Z"/><circle cx="2744.232" cy="1707.762" r="71.82" fill="#fff" stroke="#1a1a1a" stroke-linecap="round" stroke-linejoin="round" stroke-width="4.198"/><path fill="#1c0311" stroke="#1a1a1a" stroke-linecap="round" stroke-linejoin="round" stroke-width="2.099" d="M2495.21092,408.28473A134.43744,134.43744,0,0,0,2360.77345,273.8471H751.25781A134.43745,134.43745,0,0,0,616.82034,408.28473v7.46863H2495.21092Z"/><path fill="#fff" stroke="#1a1a1a" stroke-linecap="round" stroke-linejoin="round" stroke-width="4.198" d="M616.82034,415.75336v937.3283A134.43738,134.43738,0,0,0,751.25781,1487.519H2360.77345a134.43737,134.43737,0,0,0,134.43747-134.43731V415.75336Z"/><rect width="308.708" height="141.906" x="2398.117" y="703.58" fill="#fff" stroke="#1a1a1a" stroke-linecap="round" stroke-linejoin="round" stroke-width="4.198" rx="13.307"/><rect width="308.708" height="141.906" x="2398.117" y="886.272" fill="#1c0311" stroke="#1a1a1a" stroke-linecap="round" stroke-linejoin="round" stroke-width="2.099" rx="13.307"/><path fill="#fff" stroke="#1a1a1a" stroke-linecap="round" stroke-linejoin="round" stroke-width="4.198" d="M1795.638,854.5424s-13.0356,3.9469-20.22786,1.86719"/><path fill="none" stroke="#1a1a1a" stroke-linecap="round" stroke-linejoin="round" stroke-width="4.198" d="M766.19531,899.35492s1.15753,4.28351,3.6817,12.03906"/><path fill="none" stroke="#1a1a1a" stroke-dasharray="25.271 25.271" stroke-linecap="round" stroke-linejoin="round" stroke-width="4.198" d="M778.27527,935.22394c34.78119,92.31427,151.1029,336.419,430.44348,415.99029,230.86816,65.7638,369.81726,43.95667,422.26025,30.12537"/><path fill="none" stroke="#1a1a1a" stroke-linecap="round" stroke-linejoin="round" stroke-width="4.198" d="M1643.11938,1377.84375c7.92286-2.49744,11.85718-4.22327,11.85718-4.22327"/><line x1="833.414" x2="833.414" y1="415.753" y2="428.347" fill="none" stroke="#1a1a1a" stroke-linecap="round" stroke-linejoin="round" stroke-width="4.198"/><line x1="833.414" x2="833.414" y1="453.873" y2="1462.162" fill="none" stroke="#1a1a1a" stroke-dasharray="25.526 25.526" stroke-linecap="round" stroke-linejoin="round" stroke-width="4.198"/><line x1="833.414" x2="833.414" y1="1474.926" y2="1487.519" fill="none" stroke="#1a1a1a" stroke-linecap="round" stroke-linejoin="round" stroke-width="4.198"/><line x1="616.82" x2="629.414" y1="530.585" y2="530.585" fill="none" stroke="#1a1a1a" stroke-linecap="round" stroke-linejoin="round" stroke-width="4.198"/><line x1="654.8" x2="2469.924" y1="530.585" y2="530.585" fill="none" stroke="#1a1a1a" stroke-dasharray="25.386 25.386" stroke-linecap="round" stroke-linejoin="round" stroke-width="4.198"/><line x1="2482.617" x2="2495.211" y1="530.585" y2="530.585" fill="none" stroke="#1a1a1a" stroke-linecap="round" stroke-linejoin="round" stroke-width="4.198"/><polygon fill="#fff" points="528.205 1441.054 584.32 1514.108 712.788 1415.427 658.588 1340.902 528.205 1441.054"/><path fill="#fff" d="M809.06949,1421.52978l135.18277-103.83846-4.99769-117.00985-89.838,69.0076a38.58721,38.58721,0,1,1-17.22968-21.31255l90.37819-69.42242L810.8002,1143.95594,675.61743,1247.7944l-11.66986,88.99041-5.35959,4.11683,54.20043,74.52566,7.2749-5.588Z"/><rect width="66.608" height="92.119" x="496.546" y="1451.809" fill="#fff" transform="rotate(-37.529 529.85 1497.868)"/><rect width="190.13" height="92.119" x="332.983" y="1530.007" fill="#fff" transform="rotate(-37.529 428.048 1576.066)"/><polygon fill="none" stroke="#fff" stroke-miterlimit="10" stroke-width="2.099" points="528.205 1441.054 584.32 1514.108 712.788 1415.427 658.588 1340.902 528.205 1441.054"/><path fill="none" stroke="#fff" stroke-miterlimit="10" stroke-width="2.099" d="M809.06949,1421.52978l135.18277-103.83846-4.99769-117.00985-89.838,69.0076a38.58721,38.58721,0,1,1-17.22968-21.31255l90.37819-69.42242L810.8002,1143.95594,675.61743,1247.7944l-11.66986,88.99041-5.35959,4.11683,54.20043,74.52566,7.2749-5.588Z"/><rect width="66.608" height="92.119" x="496.546" y="1451.809" fill="#1c0311" stroke="#1a1a1a" stroke-linecap="round" stroke-linejoin="round" stroke-width="2.099" transform="rotate(-37.529 529.85 1497.868)"/><rect width="190.13" height="92.119" x="332.983" y="1530.007" fill="none" stroke="#fff" stroke-miterlimit="10" stroke-width="2.099" transform="rotate(-37.529 428.048 1576.066)"/><polygon fill="none" stroke="#1a1a1a" stroke-linecap="round" stroke-linejoin="round" stroke-width="4.198" points="528.205 1441.054 584.32 1514.108 712.788 1415.427 658.588 1340.902 528.205 1441.054"/><path fill="none" stroke="#1a1a1a" stroke-linecap="round" stroke-linejoin="round" stroke-width="4.198" d="M809.06949,1421.52978l135.18277-103.83846-4.99769-117.00985-89.838,69.0076a38.58721,38.58721,0,1,1-17.22968-21.31255l90.37819-69.42242L810.8002,1143.95594,675.61743,1247.7944l-11.66986,88.99041-5.35959,4.11683,54.20043,74.52566,7.2749-5.588Z"/><rect width="66.608" height="92.119" x="496.546" y="1451.809" fill="none" stroke="#1a1a1a" stroke-linecap="round" stroke-linejoin="round" stroke-width="4.198" transform="rotate(-37.529 529.85 1497.868)"/><rect width="190.13" height="92.119" x="332.983" y="1530.007" fill="none" stroke="#1a1a1a" stroke-linecap="round" stroke-linejoin="round" stroke-width="4.198" transform="rotate(-37.529 428.048 1576.066)"/><path fill="#fff" stroke="#1a1a1a" stroke-linecap="round" stroke-linejoin="round" stroke-width="4.198" d="M544.00269,730.375V672.48934h-59.719a106.65141,106.65141,0,0,0-10.03161-24.22806l42.22229-42.222-40.93888-40.9392L433.3132,607.32273a106.636,106.636,0,0,0-24.22806-10.03193V537.598H351.22586V597.2908a106.636,106.636,0,0,0-24.22806,10.03193l-42.22228-42.22261-40.93888,40.9392,42.22229,42.222a106.65141,106.65141,0,0,0-10.03161,24.22806h-59.719V730.375h59.719a106.6393,106.6393,0,0,0,10.03161,24.22805l-42.22229,42.22229,40.93888,40.93887,42.22228-42.22228a106.63513,106.63513,0,0,0,24.22806,10.03161v59.69279h57.85928V805.57354a106.63513,106.63513,0,0,0,24.22806-10.03161l42.22228,42.22228,40.93888-40.93887-42.22229-42.22229A106.6393,106.6393,0,0,0,484.28368,730.375Zm-113.72791,0a57.89642,57.89642,0,0,1-21.18964,21.18964,56.48517,56.48517,0,0,1-13.96064,5.78875,58.11393,58.11393,0,0,1-29.96422,0,56.30187,56.30187,0,0,1-13.93442-5.78875,58.18993,58.18993,0,0,1-27.00445-35.15044,58.726,58.726,0,0,1-1.93822-14.982,57.59431,57.59431,0,0,1,1.96443-14.982,56.49709,56.49709,0,0,1,5.7886-13.9608A58.09338,58.09338,0,0,1,351.22586,651.3a56.30228,56.30228,0,0,1,13.93442-5.78876,58.11421,58.11421,0,0,1,29.96422,0A56.48557,56.48557,0,0,1,409.08514,651.3a58.09338,58.09338,0,0,1,21.18964,21.18932,56.49707,56.49707,0,0,1,5.78859,13.9608,57.59389,57.59389,0,0,1,1.96444,14.982,58.726,58.726,0,0,1-1.93822,14.982A57.574,57.574,0,0,1,430.27478,730.375Z"/><circle cx="835.904" cy="344.8" r="36.721" fill="#fff" stroke="#1a1a1a" stroke-linecap="round" stroke-linejoin="round" stroke-width="4.198"/><rect width="301.862" height="48.547" x="929.885" y="323.639" fill="#fff" stroke="#1a1a1a" stroke-linecap="round" stroke-linejoin="round" stroke-width="4.198" rx="8.198"/><path fill="#fff" stroke="#1a1a1a" stroke-linecap="round" stroke-linejoin="round" stroke-width="4.198" d="M911.836,544.43372V761.48547a42.643,42.643,0,0,0,42.64292,42.64305H2000.7086a42.643,42.643,0,0,0,42.64292-42.64305V544.43372Z"/><path fill="#1c0311" stroke="#1a1a1a" stroke-linecap="round" stroke-linejoin="round" stroke-width="2.099" d="M2043.35152,525.61488a42.64274,42.64274,0,0,0-42.64292-42.64278H954.47887A42.64282,42.64282,0,0,0,911.836,525.61488v18.81884H2043.35152Z"/><rect width="1131.516" height="189.327" x="911.836" y="872.473" fill="#fff" stroke="#1a1a1a" stroke-linecap="round" stroke-linejoin="round" stroke-width="4.198" rx="20.317"/><path fill="#1c0311" stroke="#1a1a1a" stroke-linecap="round" stroke-linejoin="round" stroke-width="2.099" d="M1362.26977,2107.4836c-26.687-24.88351-56.10747-56.15751-49.85574-92.106,4.71782-27.12867,28.36012-46.10863,45.06183-68.001,23.09173-30.26828,33.87646-70.57713,25.15448-107.63557-8.722-37.0586-38.19062-69.41825-75.2748-78.03041-37.084-8.61232-79.69366,9.24283-96.55891,43.37444-13.21694,26.74867-10.21721,58.19916-12.94341,87.91031-2.7262,29.711-15.45108,63.06085-43.93589,71.93727-23.791,7.41379-48.98383-5.31636-69.27278-19.78474-20.28879-14.46837-40.4281-31.729-65.14487-34.9004-29.00614-3.72169-58.02027,14.28948-72.70926,39.57649-14.68916,25.28717-16.73225,56.351-11.58183,85.13759,5.15057,28.7868,16.94166,55.89645,28.63812,82.69931l-76.90655,88.10294-25.23825,293.77076h264.239c27.24329-12.30011,52.682-28.46307,77.93081-44.5672q31.29311-19.95946,62.58637-39.91877c14.11875-9.00527,29.77718-20.50893,30.71687-37.2287,1.90561-33.906-55.84561-47.01875-54.89776-80.96508.3864-13.83611,11.56185-25.4611,24.3-30.87641s26.9282-5.93792,40.74144-6.821c21.17-1.35359,42.71675-3.85294,61.9557-12.7893,19.23911-8.93621,36.05544-25.34072,40.6209-46.05684C1417.748,2164.67816,1388.95689,2132.36711,1362.26977,2107.4836Z"/><path fill="none" stroke="#fff" stroke-linecap="round" stroke-linejoin="round" stroke-width="6.297" d="M1250.41927 1943.226s-27.94324 162.44852-114.79974 242.36815-101.794 186.97171-98.05963 234.27379-39.83334 79.66663-39.83334 79.66663M1149.59115 2350.15959s-77.95066-26.81167-109.92846 20.20354M1048.763 2143.37186s36.86381 17.89821 34.6142 105.49661M1259.13281 2104.93563s-26.311 38.39265-92.19975 45.33695"/><path fill="#fff" stroke="#1a1a1a" stroke-linecap="round" stroke-linejoin="round" stroke-width="4.198" d="M979.48307,2431.81231c27.42187-53.81067-.14883-96.5239-45.7-126.19972-44.98749-41.83364-11.07186-69.29068,28.94171-94.72253,71.90577-62.79627.34659-177.18523-87.65836-139.60786-31.62347,15.30592-68.34427,59.20776-105.22606,33.54282-21.19316-16.78068-14.19661-49.525-11.93194-76.46324,7.04291-67.55885-43.88857-163.85255-120.931-151.4928-34.315,8.59137-53.87,45.5913-85.79368,60.828-94.3275,40.96525-167.497-91.81249-259.44938-83.17171-178.26577,39.97152-121.711,351.68183,133.61112,313.18923,20.39942,1.68243,41.73965,9.39742,53.13923,26.39536,37.0618,58.14449-57.7648,126.98978-22.32772,185.39741,30.89352,44.39806,92.22717,21.48634,137.09269,20.5588,62.95214-1.93694,88.06905,53.02636,53.25641,99.46848H891.04632C927.71166,2487.07873,960.79039,2467.08521,979.48307,2431.81231Z"/><path fill="#fff" stroke="#1a1a1a" stroke-linecap="round" stroke-linejoin="round" stroke-width="4.198" d="M729.78516 2499.53455l19.60547-37.34371c85.89062-296.88282-364.10157-451.85938-364.10157-451.85938M790.46875 2228.7924s10.31518 66.2429-36.23174 105.00817M600.638 2010.33146c1.24479 3.112 37.77126 64.35994 7.9937 121.49377M604.99479 2222.57582s78.67927-9.10751 107.18078 16.29282M405.20573 2056.38875s42.87832 13.74208 81.50036-1.2201"/><line x1="66" x2="2934" y1="2499.761" y2="2499.761" fill="none" stroke="#1a1a1a" stroke-linecap="round" stroke-linejoin="round" stroke-width="6.297"/><polygon fill="#1c0311" stroke="#1a1a1a" stroke-linecap="round" stroke-linejoin="round" stroke-width="2.099" points="1083.617 1329.032 1104.502 1282.993 1144.895 1302.475 1125.162 1347.791 1083.617 1329.032"/><path fill="#1c0311" stroke="#1a1a1a" stroke-linecap="round" stroke-linejoin="round" stroke-width="2.099" d="M1709.7616,2557.2589c-3.4198-11.14052-7.52805-24.00446-8.57211-25.04853-1.86715-1.86715-59.28318,0-59.28318,0s-8.92325,4.31476-22.234,10.99589C1641.72222,2569.32511,1676.18093,2567.50267,1709.7616,2557.2589Z"/><path fill="#fff" stroke="#1a1a1a" stroke-linecap="round" stroke-linejoin="round" stroke-width="4.198" d="M1719.07532,2606.12266c.79465-7.59684-.39687-17.92286-4.3487-32.36737,0,0-2.26864-7.71278-4.965-16.49639-33.58067,10.24377-68.03938,12.06621-90.08931-14.05264-36.99944,18.57133-107.91852,55.4378-115.471,68.82633-4.67422,8.28606-7.11029,18.69419-5.53151,27.538C1572.3057,2646.20614,1652.60115,2638.46569,1719.07532,2606.12266Z"/><path fill="#fff" stroke="#1a1a1a" stroke-linecap="round" stroke-linejoin="round" stroke-width="4.198" d="M1498.66974,2639.57061c1.88983,10.58659,9.53881,18.92926,26.07056,18.675,30.34175-.46682,141.45358-18.17907,163.84569-26.14063,14.8738-5.28849,28.56184-7.55559,30.48933-25.98229C1652.60115,2638.46569,1572.3057,2646.20614,1498.66974,2639.57061Z"/><path fill="#1c0311" stroke="#1a1a1a" stroke-linecap="round" stroke-linejoin="round" stroke-width="2.099" d="M2496.47268,2480.68955c-14.44208-14.81832-27.40235-25.96743-27.40235-25.96743l-75.6211,36.877s-11.05917,10.48743-25.707,24.43732C2414.47778,2527.35873,2468.22,2515.97147,2496.47268,2480.68955Z"/><path fill="#fff" stroke="#1a1a1a" stroke-linecap="round" stroke-linejoin="round" stroke-width="4.198" d="M2354.25059,2610.4328c-22.334,6.38111-47.08924,9.10453-70.5869,4.52434a33.08719,33.08719,0,0,0,3.35587,7.8118c8.86907,15.40428,67.68555,2.334,126.5019-18.20508,54.36363-18.98409,120.68369-43.95037,120.094-70.84362C2487.1947,2582.17726,2414.07424,2587.99893,2354.25059,2610.4328Z"/><path fill="#fff" stroke="#1a1a1a" stroke-linecap="round" stroke-linejoin="round" stroke-width="4.198" d="M2496.47268,2480.68955c-28.25272,35.28192-81.9949,46.66918-128.73044,35.34687-25.07119,23.87661-60.68017,57.92064-69.51964,67.05475-11.48884,11.87188-17.61874,20.60708-14.55891,31.866,23.49766,4.58019,48.253,1.85677,70.5869-4.52434,59.82365-22.43387,132.94411-28.25554,179.36489-76.71256a17.15025,17.15025,0,0,0-1.52754-6.64463C2525.67467,2512.6457,2510.38607,2494.96522,2496.47268,2480.68955Z"/><path fill="#fff" stroke="#1a1a1a" stroke-linecap="round" stroke-linejoin="round" stroke-width="4.198" d="M2075.71615,1798.71688c23.651,229.04166,292.526,691.48177,298.1276,697.08333s87.75781,11.20313,100.82813-28.00781-74.6875-334.22656-106.42969-435.05469c22.40625-106.42969,29.875-399.57812-28.00781-515.70165s-145.64063-130.34522-145.64063-130.34522l-151.24219,50.41406"/><path fill="#fff" stroke="#1a1a1a" stroke-linecap="round" stroke-linejoin="round" stroke-width="4.198" d="M2208.7044,1561.27287s36.30341,71.88672-36.5169,191.38672c-88.71135,145.57759-335.47135,204.14583-404.55949,226.55208,19.29208,156.84375-35.47436,514.099-64.10457,568.86979-29.875,19.91667-74.6875-8.71354-74.6875-8.71354S1549.16927,2132.321,1586.513,1914.4825s372.19271-413.27083,372.19271-413.27083l161.20052-64.10677"/><path fill="#1c0311" stroke="#1a1a1a" stroke-linecap="round" stroke-linejoin="round" stroke-width="2.099" d="M1927.30673,1520.84684s94.15458,22.32862,150.26367,2.12935,121.62119-49.376,131.134-100.99637l-.1915-25.483-261.86372,104.0357Z"/><path fill="#fff" stroke="#1a1a1a" stroke-linecap="round" stroke-linejoin="round" stroke-width="4.198" d="M1872.50391,942.30021s-30.8086-67.21875-26.14063-98.02734,71.88672-65.35156.9336-127.90235-119.5,8.40235-124.168,40.14454-4.668,85.89062,52.28125,99.89453l-1.86719,104.5625"/><polygon fill="#1c0311" stroke="#1a1a1a" stroke-linecap="round" stroke-linejoin="round" stroke-width="2.099" points="1796.776 852.161 1775.41 856.41 1775.241 865.879 1796.776 852.161"/><path fill="#fff" stroke="#1a1a1a" stroke-linecap="round" stroke-linejoin="round" stroke-width="4.198" d="M2125.97461,600.6049s-42.01172-55.54883-92.42578-58.34961-59.75,21.00586-48.08008,35.00977,41.07813,18.67187,47.61328,18.67187-19.60547,13.53711-17.27148,19.13867,24.27343,2.334,35.47656-1.86719,33.14258-5.60156,38.74414,2.80079S2125.97461,600.6049,2125.97461,600.6049Z"/><path fill="#54cafa" stroke="#1a1a1a" stroke-linecap="round" stroke-linejoin="round" stroke-width="4.198" d="M1887.44141,946.96818s172.71484,22.40625,217.52734-53.21484,24.84-210.84808-22.40625-267.00782c-11.0403-11.29141.93359-23.33984,14.9375-28.9414s28.94141-15.8711,51.34766,15.87109,113.89843,185.78516,95.739,329.5586c-16.68025,132.06237-77.06715,199.78906-162.02418,210.05859C1992.9375,1065.53459,1887.44141,946.96818,1887.44141,946.96818Z"/><path fill="#fff" stroke="#1a1a1a" stroke-linecap="round" stroke-linejoin="round" stroke-width="4.198" d="M1199.38281,854.0756s-53.21484-66.28515-55.082-93.35937,3.73438-41.07813,20.53906-45.2793,23.33985,21.93945,36.41016,27.541,31.27539-15.4043,34.07617,1.86718-20.53906,52.28125-18.67187,71.41993,9.80273,24.74023,9.80273,24.74023Z"/><path fill="#54cafa" stroke="#1a1a1a" stroke-linecap="round" stroke-linejoin="round" stroke-width="4.198" d="M1809.95312,1164.49552C1405.707,1241.05021,1191.8134,862.76826,1187.73661,854.218s23.281-34.37715,36.542-27.68344,271.987,142.83984,479.24479,131.63672c60.68946-3.7032,66.752-4.20118,88.6914-13.07032s84.02344-24.27343,101.29493-10.73633,86.35742,53.68165,177.84961,169.44727S2217,1381.08927,2207.66406,1410.03068s-85.89062,114.832-242.73437,106.42969c-112.96485-9.33594-300.49788-206.81947-341.576-348.72572"/><path fill="#1c0311" stroke="#1a1a1a" stroke-linecap="round" stroke-linejoin="round" stroke-width="2.099" d="M1725.51066,699.171c-5.05141-42.753,45.33244-68.64448,81.96554-52.97776,53.09463,15.29167,56.82844,86.608,106.05238,105.32454,12.99763,4.00279,27.25108,2.22122,40.21544,6.32576,42.08555,13.84073,44.34339,71.962,14.28164,99.66715-37.48724,38.87557-121.58762,47.88088-139.91789-14.39789-7.20616-19.8908-27.75117-42.89656,4.78493-50.37851,32.00011-14.8515,20.25065-51.00312-15.3381-38.59367-17.24889-.67358-33.61739-9.75442-49.64913-15.63211C1748.13388,733.26637,1727.815,721.64216,1725.51066,699.171Z"/><rect width="219.948" height="69.739" x="2439.264" y="1115.291" fill="#fff" stroke="#1a1a1a" stroke-linecap="round" stroke-linejoin="round" stroke-width="4.198"/><rect width="132.417" height="51.147" x="2439.264" y="1214.791" fill="#fff" stroke="#1a1a1a" stroke-linecap="round" stroke-linejoin="round" stroke-width="4.198"/><rect width="21.945" height="166.582" x="2398.117" y="1107.062" fill="#fff" stroke="#1a1a1a" stroke-linecap="round" stroke-linejoin="round" stroke-width="4.198"/><rect width="310.353" height="209.66" x="190.79" y="1022.921" fill="#fff" stroke="#1a1a1a" stroke-linecap="round" stroke-linejoin="round" stroke-width="4.198"/><polygon fill="#fff" stroke="#1a1a1a" stroke-linecap="round" stroke-linejoin="round" stroke-width="4.198" points="279.187 1162.197 325.59 1081.825 371.993 1162.197 279.187 1162.197"/><ellipse cx="382.519" cy="1123.257" fill="#1c0311" stroke="#1a1a1a" stroke-linecap="round" stroke-linejoin="round" stroke-width="2.099" rx="41.302" ry="42.26"/><path fill="#fff" stroke="#1a1a1a" stroke-linecap="round" stroke-linejoin="round" stroke-width="4.198" d="M2697.27116,490.28971a40.04679,40.04679,0,0,0,22.62578,27.55056l-24.38341,5.41134-19.17891-12.98641-139.86768,31.04046,29.7781,20.223,186.2316-41.32988.27532-.21161c21.78193-6.57547,35.38131-27.73923,30.70206-48.82383-4.92027-22.17066-28.215-35.87766-52.00432-30.59815C2707.63958,445.84934,2692.35089,468.11905,2697.27116,490.28971Zm76.14225-16.89805c3.77888,17.02754-7.95022,34.12127-26.207,38.173-18.257,4.05174-36.13651-6.471-39.91539-23.49858-3.77435-17.00716,7.97525-34.10544,26.2323-38.15717C2751.7801,445.85718,2769.63906,456.38451,2773.41341,473.39166Z"/><path fill="#fff" stroke="#1a1a1a" stroke-linecap="round" stroke-linejoin="round" stroke-width="4.198" d="M2726.1843,620.30615c23.635,5.9323,47.29817-7.12834,52.82681-29.15517,5.25782-20.94782-7.75389-42.47787-29.34659-49.65039l-.26939-.21911-176.96679-44.41792-38.38012,17.37356,138.96032,34.87846,19.52909-12.4536,24.22523,6.08043a40.04679,40.04679,0,0,0-23.37552,26.91736C2687.8587,591.6866,2702.52864,614.36868,2726.1843,620.30615Zm2.33-9.283c-18.13861-4.55272-29.41314-21.96792-25.17211-38.86474,4.24612-16.91708,22.40845-26.94375,40.54705-22.391,18.13836,4.55265,29.39251,21.96274,25.1464,38.87982C2764.79461,605.544,2746.65265,615.57579,2728.5143,611.02314Z"/><circle cx="2665.183" cy="529.768" r="11.366" fill="#fff" stroke="#1a1a1a" stroke-linecap="round" stroke-linejoin="round" stroke-width="4.198"/></g></g></svg>