<svg height="56" viewBox="0 0 56 56" width="56" xmlns="http://www.w3.org/2000/svg"><g fill="none"><rect fill="none" height="56" rx="8" width="56"/><path d="m29.889-.00012157h-26.67c-.59111239-.00581971-1.15974535.22637485-1.57774604.64437554-.41800068.41800068-.65019524.98663364-.64436523 1.57774603v17.778h31.11522267v-17.778c.0058344-.5912876-.2264966-1.16007572-.6447153-1.57810625-.4182186-.41803053-.9871112-.6501056-1.5783961-.64401532z" fill="#fff" transform="translate(11.444 6.888)"/><path d="m25.112 0h-25.112v3.111h25.112c.8558339-.01082513 1.5463736-.70314107 1.555-1.559-.012392-.85312552-.7018521-1.54125551-1.555-1.552z" fill="#edf3fd" transform="translate(12.444 22.444)"/><path d="m32.441 18.222c-.3554266.0062971-.6981514-.1321206-.9495154-.3834846s-.3897817-.5940888-.3834846-.9495154v-13.333c-.0010998-.49052485-.3984751-.88790016-.889-.889h-26.663c-.49029763.00164623-.88735377.39870237-.889.889v13.333c0 .7364717-.59702829 1.3335-1.3335 1.3335s-1.3335-.5970283-1.3335-1.3335v-13.333c.0054933-1.96164467 1.59435533-3.5505067 3.556-3.556h26.666c1.9616447.0054933 3.5505067 1.59435533 3.5562072 3.556v13.333c.0061234.3561342-.1328374.699492-.3850792.9509791-.2522417.2514871-.5960144.3894185-.952128.3820209z" fill="#444b54" transform="translate(11.111 5.555)"/><path d="m35.556 0h-31.111c-2.45155337.00713696-4.43731144 1.99244829-4.445 4.444v17.778h40v-17.778c-.0076857-2.45116286-1.9928371-4.43631433-4.444-4.444z" fill="#7ca7ee" transform="translate(8 26.888)"/><path d="m34.226 0h-34.226v2.667h34.226c.3554266.00629707.6981514-.13212055.9495154-.38348457.251364-.25136401.3897817-.59408881.3837086-.94951543.0063478-.35559848-.1319485-.69858506-.3833432-.95016837s-.5942775-.39013675-.9498808-.38383163z" fill="#387ae5" transform="translate(8 45.111)"/><g fill="#fff"><circle cx="12.444" cy="31.332" r="1.333"/><circle cx="16.888" cy="31.332" r="1.333"/><circle cx="21.333" cy="31.332" r="1.333"/><circle cx="25.777" cy="31.332" r="1.333"/><circle cx="30.222" cy="31.332" r="1.333"/><circle cx="34.666" cy="31.332" r="1.333"/><circle cx="39.111" cy="31.332" r="1.333"/><circle cx="43.555" cy="31.332" r="1.333"/></g><g fill="#fff"><circle cx="14.666" cy="34.888" r="1.333"/><circle cx="19.11" cy="34.888" r="1.333"/><circle cx="23.555" cy="34.888" r="1.333"/><circle cx="27.999" cy="34.888" r="1.333"/><circle cx="32.444" cy="34.888" r="1.333"/><circle cx="36.888" cy="34.888" r="1.333"/><circle cx="41.333" cy="34.888" r="1.333"/></g><g fill="#fff"><circle cx="12.444" cy="38.444" r="1.333"/><circle cx="16.888" cy="38.444" r="1.333"/><circle cx="21.333" cy="38.444" r="1.333"/><circle cx="25.777" cy="38.444" r="1.333"/><circle cx="30.222" cy="38.444" r="1.333"/><circle cx="34.666" cy="38.444" r="1.333"/><circle cx="39.111" cy="38.444" r="1.333"/><circle cx="43.555" cy="38.444" r="1.333"/></g><g fill="#444b54"><path d="m41.333 8h-40c-.35542662.00629707-.69815142-.13212055-.94951543-.38348457-.25136402-.25136401-.38978164-.59408881-.38369041-.94951543v-5.333c0-.73647171.59723413-1.3335 1.33370584-1.3335s1.3335.59702829 1.3335 1.3335v4h37.333v-4c0-.73647171.5970283-1.3335 1.3335-1.3335s1.3337062.59702829 1.3337062 1.3335v5.333c.0060989.35560331-.1324545.69848608-.3840378.9498808-.2515833.25139471-.5945699.38969099-.9501684.3831192z" transform="translate(6.667 42.444)"/><path d="m41.333 7.111c-.3554266.00629707-.6981514-.13212055-.9495154-.38348457-.251364-.25136401-.3897817-.59408881-.3834846-.94951543.0050954-.82664003-.3210332-1.62089903-.9055671-2.20543291-.5845339-.58453387-1.3787929-.9106625-2.2054329-.90556709h-31.111c-.82664003-.00509541-1.62089903.32103322-2.20543291.90556709-.58453387.58453388-.9106625 1.37879288-.90556709 2.20543291 0 .73647171-.59702829 1.3335-1.3335 1.3335s-1.33351253-.59702829-1.33351253-1.3335c-.00318206-1.53339799.60454385-3.00491174 1.68882232-4.08919021s2.55579222-1.69200438 4.08919021-1.68882232h31.111c1.533398-.00318206 3.0049117.60454385 4.0891902 1.68882232s1.6920044 2.55579222 1.689016 4.08919021c.0060989.35560331-.1324545.69848608-.3840378.9498808-.2515833.25139471-.5945699.38969099-.9501684.3831192z" transform="translate(6.667 25.555)"/><path d="m1.334 7.112c-.35542662.00629707-.69815142-.13212055-.94951543-.38348457-.25136402-.25136401-.38978164-.59408881-.38348457-.94951543v-4.445c0-.73647171.59702829-1.3335 1.3335-1.3335s1.3335.59702829 1.3335 1.3335v4.444c.00657998.35577517-.13185207.69891981-.38346613.95053387s-.5947587.39004611-.95053387.38346613z" transform="translate(4 33.999)"/><path d="m1.337 7.111c-.35542662.00629707-.69815142-.13212055-.94951543-.38348457-.25136402-.25136401-.38978164-.59408881-.38348457-.94951543v-4.445c.00000006-.73647167.59702833-1.33349989 1.3335-1.33349989s1.33349994.59702822 1.3335 1.33349989v4.444c.00657998.35577517-.13185207.69891981-.38346613.95053387s-.5947587.39004611-.95053387.38346613z" transform="translate(49.333 34.444)"/></g></g></svg>